<?xml version="1.0" encoding="UTF-8"?>
<!DOCTYPE svg PUBLIC "-//W3C//DTD SVG 1.1//EN" "http://www.w3.org/Graphics/SVG/1.1/DTD/svg11.dtd">
<!-- Creator: CorelDRAW -->
<svg xmlns="http://www.w3.org/2000/svg" xml:space="preserve" width="128px" height="128px" style="shape-rendering:geometricPrecision; text-rendering:geometricPrecision; image-rendering:optimizeQuality; fill-rule:evenodd; clip-rule:evenodd"
viewBox="0 0 128 128"
 xmlns:xlink="http://www.w3.org/1999/xlink">
 <defs>
  <style type="text/css">
   <![CDATA[
    .fil0 {fill:#FEFEFE}
   ]]>
  </style>
 </defs>
 <g id="Capa_x0020_1">
  <metadata id="CorelCorpID_0Corel-Layer"/>
  <g id="_220946624">
   <path id="_220951280" class="fil0" d="M64.0012 -0.00118112c35.3461,0 64,28.6539 64,64 0,35.3461 -28.6539,64 -64,64 -35.3461,0 -64,-28.6539 -64,-64 0,-35.3461 28.6539,-64 64,-64zm0 8.66349c30.5614,0 55.3365,24.7751 55.3365,55.3365 0,30.5614 -24.7751,55.3365 -55.3365,55.3365 -30.5614,0 -55.3365,-24.7751 -55.3365,-55.3365 0,-30.5614 24.7751,-55.3365 55.3365,-55.3365z"/>
   <g>
    <rect id="_220952360" class="fil0" transform="matrix(0.0436184 0.0436184 -0.0436184 0.0436184 89.8205 31.4558)" width="154.15" height="1338.02" rx="7.28631" ry="7.28631"/>
    <rect id="_220951784" class="fil0" transform="matrix(0.0436184 -0.0436184 0.0436184 0.0436184 31.4581 38.1795)" width="154.15" height="1338.02" rx="7.28631" ry="7.28631"/>
   </g>
  </g>
 </g>
</svg>
