<?xml version="1.0" encoding="UTF-8"?>
<!DOCTYPE svg PUBLIC "-//W3C//DTD SVG 1.1//EN" "http://www.w3.org/Graphics/SVG/1.1/DTD/svg11.dtd">
<!-- Creator: CorelDRAW -->
<svg xmlns="http://www.w3.org/2000/svg" xml:space="preserve" width="307px" height="106px" style="shape-rendering:geometricPrecision; text-rendering:geometricPrecision; image-rendering:optimizeQuality; fill-rule:evenodd; clip-rule:evenodd"
viewBox="0 0 307 106.269"
 xmlns:xlink="http://www.w3.org/1999/xlink">
 <defs>
  <style type="text/css">
   <![CDATA[
    .fil2 {fill:#0098DA}
    .fil1 {fill:#BDBFC1}
    .fil3 {fill:#ED3237}
    .fil5 {fill:#FEFEFE}
    .fil0 {fill:white}
    .fil6 {fill:#1378BD}
    .fil7 {fill:#76A852}
    .fil4 {fill:#373435;fill-rule:nonzero}
    .fil8 {fill:#FEFEFE;fill-rule:nonzero}
   ]]>
  </style>
 </defs>
 <g id="Capa_x0020_1">
  <metadata id="CorelCorpID_0Corel-Layer"/>
  <g id="_452411016">
   <g>
    <rect id="_454372056" class="fil0" x="6.0004" y="13.3481" width="80.7693" height="68.8194"/>
    <path id="_454372440" class="fil1" d="M3.82923 10.438l86.1229 0 0 86.1241 -86.1229 0 0 -86.1241zm4.5436 4.54478l77.0086 0 0 65.2092 -77.0086 0 0 -65.2092z"/>
    <rect id="_454372512" class="fil2" x="12.589" y="60.466" width="68.8766" height="5.59389"/>
    <rect id="_454373160" class="fil2" x="12.589" y="71.6354" width="68.8766" height="5.59389"/>
    <rect id="_454372296" class="fil3" x="13.9031" y="19.4491" width="6.35077" height="38.3532"/>
    <polygon id="_454373472" class="fil3" points="24.6344,57.8069 30.8488,57.8069 30.8488,38.0692 36.3783,57.8069 43.1134,57.8069 43.1134,19.4532 36.7892,19.4532 36.7892,38.643 30.8488,19.4532 24.6344,19.4532 "/>
    <polygon id="_453204560" class="fil3" points="45.7843,32.3708 49.7812,32.3708 49.7812,57.8022 56.5423,57.8022 56.5423,32.0969 60.4023,32.0969 60.4023,19.4496 45.7843,19.4496 "/>
    <path id="_453205040" class="fil3" d="M67.8104 44.0722l2.90115 0 -1.36851 -12.5114 -1.53264 12.5114zm-8.67865 13.7418l6.48833 -38.3526 7.99381 0 6.48833 38.3526 -7.31014 0 -1.12173 -4.98167 -4.54478 0 -0.820635 4.98167 -7.17317 0z"/>
   </g>
   <g>
    <path id="_453209984" class="fil4" d="M110.309 65.907l-1.38386 -1.90812 0.0200731 -0.0141692 0.0188923 -0.0129885 0.01535 -0.0118077 0.0200731 -0.0165308 0.0118077 -0.0106269 0.0106269 -0.00944615 0.01535 -0.01535 0.00118077 -0.00118077 0.0118077 -0.01535 0.0118077 -0.0129885 -0.00118077 0.00118077 0.0106269 -0.01535 0.00472308 -0.00708462 -0.00118077 0.00236154 0.00590385 -0.0129885 0.00944615 -0.0177115 -0.00118077 0.00118077 0.00472308 -0.0141692 0.00354231 -0.00590385 0.00236154 -0.0129885 0.00590385 -0.0177115 0.00118077 -0.00590385 0.00236154 -0.01535 0.00236154 -0.0177115 0.00354231 -0.0224346 0.00118077 -0.0224346 0.00236154 -0.0259769 0 -0.0271577 0 -0.0200731 -0.00118077 -0.0212538 -0.00354231 -0.0448692 -0.00354231 -0.0377846 -0.00354231 -0.0307 2.33556 -0.321169 0.0129885 0.103908 0.00826538 0.0944615 0.00590385 0.0850154 0.00590385 0.106269 0 0.10745 -0.00236154 0.0956423 -0.00472308 0.0968231 -0.00826538 0.0956423 -0.0106269 0.0956423 -0.0141692 0.0980038 -0.0188923 0.0956423 -0.0224346 0.105088 -0.0247962 0.0909192 -0.0283385 0.0956423 -0.0342423 0.0980038 -0.0330615 0.0873769 -0.04605 0.102727 -0.0377846 0.0791115 -0.0436885 0.0838346 -0.0554962 0.0968231 -0.0543154 0.0850154 -0.0507731 0.0743885 -0.0649423 0.0885577 -0.0590385 0.0720269 -0.0590385 0.0696654 -0.0743885 0.0791115 -0.0649423 0.0649423 -0.0720269 0.0684846 -0.0755692 0.0649423 -0.0696654 0.0566769 -0.0791115 0.0614 -0.0779308 0.0554962 0.0200731 -0.0141692zm-1.38386 -1.90812l0.00826538 -0.00590385 0.0118077 -0.00826538 -0.0200731 0.0141692zm-0.896204 4.44323l-2.04037 -1.17841 -0.00118077 0 0.0720269 -0.1228 0.07675 -0.125162 0.0720269 -0.116896 0.0755692 -0.119258 0.0779308 -0.118077 0.0802923 -0.119258 0.0838346 -0.118077 0.0779308 -0.10745 0.0826538 -0.113354 0.0873769 -0.114535 0.0850154 -0.108631 0.0850154 -0.106269 0.0909192 -0.110992 0.0897385 -0.105088 0.0885577 -0.102727 0.0944615 -0.105088 0.0909192 -0.0991846 0.0956423 -0.101546 0.0956423 -0.0991846 0.0968231 -0.0968231 0.0980038 -0.0968231 0.0968231 -0.0921 0.100365 -0.0932808 0.0991846 -0.0897385 0.101546 -0.0921 0.106269 -0.0909192 0.102727 -0.0861962 0.102727 -0.0838346 0.106269 -0.0850154 0.108631 -0.0838346 0.108631 -0.0826538 0.10745 -0.0779308 1.38386 1.90812 -0.0861962 0.0637615 -0.0826538 0.0614 -0.0802923 0.0625808 -0.0826538 0.0661231 -0.0814731 0.0673038 -0.0838346 0.0696654 -0.0755692 0.0649423 -0.0779308 0.0684846 -0.0802923 0.0732077 -0.07675 0.0720269 -0.0779308 0.0755692 -0.07675 0.0732077 -0.0732077 0.0755692 -0.0743885 0.0755692 -0.0720269 0.0779308 -0.0743885 0.0802923 -0.0684846 0.07675 -0.0720269 0.0838346 -0.0708462 0.0814731 -0.0649423 0.0802923 -0.0708462 0.0873769 -0.0661231 0.0850154 -0.0637615 0.0838346 -0.0637615 0.0873769 -0.0684846 0.0956423 -0.0602192 0.0850154 -0.0590385 0.0885577 -0.0614 0.0921 -0.0590385 0.0932808 -0.0625808 0.0980038 -0.0554962 0.0921 -0.0554962 0.0968231 -0.00118077 0zm2.99797 11.1878l-1.17841 2.04273 0 -0.00118077 -0.461681 -0.282204 -0.442788 -0.302277 -0.425077 -0.32235 -0.403823 -0.341242 -0.382569 -0.356592 -0.362496 -0.374304 -0.341242 -0.388473 -0.321169 -0.402642 -0.298735 -0.417992 -0.277481 -0.428619 -0.255046 -0.440427 -0.233792 -0.451054 -0.212538 -0.462862 -0.186562 -0.471127 -0.166488 -0.477031 -0.141692 -0.485296 -0.119258 -0.4912 -0.0956423 -0.497104 -0.0720269 -0.501827 -0.0484115 -0.504188 -0.0236154 -0.507731 0 -0.510092 0.0271577 -0.511273 0.0495923 -0.510092 0.07675 -0.508912 0.100365 -0.508912 0.128704 -0.504188 0.152319 -0.501827 0.179477 -0.495923 0.206635 -0.4912 0.231431 -0.482935 0.259769 -0.47585 2.04037 1.17841 -0.200731 0.371942 -0.181838 0.376665 -0.159404 0.380208 -0.139331 0.384931 -0.119258 0.388473 -0.0980038 0.390835 -0.0791115 0.393196 -0.0578577 0.395558 -0.0401462 0.396738 -0.0200731 0.395558 0 0.394377 0.0188923 0.394377 0.0366038 0.393196 0.0554962 0.390835 0.0743885 0.386112 0.0932808 0.382569 0.110992 0.376665 0.128704 0.373123 0.146415 0.364858 0.162946 0.356592 0.181838 0.351869 0.198369 0.341242 0.216081 0.334158 0.232612 0.323531 0.247962 0.312904 0.263312 0.301096 0.282204 0.289288 0.297554 0.278662 0.311723 0.263312 0.328254 0.249142 0.345965 0.236154 0.360135 0.220804 0 -0.00118077zm7.31132 0.442788l1.08631 2.09232 -0.0708462 0.0342423 -0.278662 0.115715 -0.282204 0.110992 -0.286927 0.101546 -0.290469 0.0932808 -0.289288 0.0826538 -0.290469 0.07675 -0.296373 0.0684846 -0.297554 0.0602192 -0.298735 0.0495923 -0.297554 0.0425077 -0.302277 0.0342423 -0.304638 0.0259769 -0.303458 0.01535 -0.303458 0.00826538 -0.304638 -0.00118077 -0.304638 -0.00944615 -0.307 -0.0188923 -0.307 -0.0271577 -0.303458 -0.0377846 -0.302277 -0.0448692 -0.305819 -0.0543154 -0.303458 -0.0637615 -0.302277 -0.0732077 -0.302277 -0.0826538 -0.299915 -0.0921 -0.298735 -0.101546 -0.296373 -0.110992 -0.292831 -0.119258 -0.292831 -0.129885 -0.289288 -0.139331 -0.285746 -0.148777 -0.284565 -0.157042 1.17841 -2.04273 0.220804 0.123981 0.224346 0.115715 0.225527 0.108631 0.224346 0.0991846 0.231431 0.0932808 0.23025 0.0873769 0.23025 0.0779308 0.231431 0.0708462 0.233792 0.0637615 0.233792 0.0566769 0.234973 0.0495923 0.234973 0.0425077 0.238515 0.0354231 0.237335 0.0283385 0.236154 0.0224346 0.236154 0.0141692 0.236154 0.00708462 0.238515 0.00118077 0.237335 -0.00590385 0.234973 -0.0129885 0.233792 -0.0188923 0.233792 -0.0271577 0.236154 -0.0330615 0.23025 -0.0401462 0.231431 -0.04605 0.227888 -0.0519538 0.229069 -0.0602192 0.227888 -0.0661231 0.221985 -0.0720269 0.220804 -0.0779308 0.220804 -0.0850154 0.217262 -0.0921 -0.0708462 0.0342423zm1.08631 2.09232l-0.0401462 0.0212538 -0.0307 0.0129885 0.0708462 -0.0342423zm2.08524 -1.6578l-1.67197 1.66016 0.128704 0.112173 -0.0307 -0.0212538 -0.0318808 -0.0236154 -0.0259769 -0.0165308 -0.0295192 -0.0177115 -0.0271577 -0.0177115 -0.0188923 -0.00944615 -0.0247962 -0.0129885 -0.0200731 -0.0106269 -0.0212538 -0.00826538 -0.0236154 -0.00944615 -0.0118077 -0.00472308 -0.00708462 -0.00236154 -0.0212538 -0.00590385 -0.0200731 -0.00590385 -0.00590385 -0.00118077 -0.00590385 0 -0.00708462 -0.00118077 -0.00708462 -0.00118077 -0.0188923 0 -0.00826538 -0.00118077 0.00354231 0 -0.0212538 0.00236154 -0.0118077 0.00118077 -0.00118077 0 -0.0141692 0.00236154 -0.0141692 0.00354231 -0.00944615 0.00236154 -0.0224346 0.00826538 -0.0259769 0.00826538 -0.0141692 0.00708462 -0.0165308 0.00708462 -0.0271577 0.0141692 -1.08631 -2.09232 0.0932808 -0.0472308 0.103908 -0.0472308 0.106269 -0.0425077 0.0944615 -0.0342423 0.0956423 -0.0318808 0.108631 -0.0307 0.101546 -0.0247962 0.103908 -0.0212538 0.114535 -0.0188923 0.103908 -0.0106269 0.0921 -0.00708462 0.119258 -0.00472308 0.105088 0.00118077 0.0944615 0.00472308 0.103908 0.00826538 0.106269 0.0129885 0.105088 0.0188923 0.105088 0.0224346 0.0885577 0.0224346 0.0897385 0.0247962 0.101546 0.0330615 0.0968231 0.0354231 0.0850154 0.0354231 0.0873769 0.0389654 0.0861962 0.0413269 0.0814731 0.0413269 0.0873769 0.0495923 0.0791115 0.04605 0.07675 0.0484115 0.0802923 0.0543154 0.0720269 0.0495923 0.0732077 0.0543154 0.128704 0.112173zm-0.128704 -0.112173l0.0684846 0.0507731 0.0602192 0.0614 -0.128704 -0.112173zm18.2771 10.5419l-0.968231 2.149 0.185381 0.0661231 -0.684846 -0.186562 -0.678942 -0.197188 -0.674219 -0.206635 -0.670677 -0.219623 -0.664773 -0.229069 -0.66005 -0.240877 -0.654146 -0.251504 -0.648242 -0.262131 -0.6447 -0.272758 -0.637615 -0.282204 -0.632892 -0.294012 -0.626988 -0.302277 -0.621085 -0.314085 -0.615181 -0.323531 -0.609277 -0.334158 -0.602192 -0.342423 -0.595108 -0.351869 -0.590385 -0.362496 -0.5833 -0.370762 -0.577396 -0.380208 -0.570312 -0.390835 -0.563227 -0.400281 -0.554962 -0.407365 -0.550238 -0.416812 -0.541973 -0.426258 -0.534888 -0.433342 -0.527804 -0.443969 -0.519538 -0.452235 -0.512454 -0.4605 -0.504188 -0.467585 -0.497104 -0.47585 -0.488838 -0.485296 1.67197 -1.66016 0.462862 0.456958 0.468765 0.449873 0.47585 0.441608 0.484115 0.434523 0.4912 0.426258 0.497104 0.417992 0.504188 0.409727 0.511273 0.402642 0.519538 0.393196 0.524262 0.386112 0.532527 0.376665 0.53725 0.367219 0.544335 0.358954 0.550238 0.351869 0.557323 0.341242 0.562046 0.332977 0.569131 0.323531 0.573854 0.315265 0.579758 0.304638 0.585662 0.295192 0.591565 0.285746 0.597469 0.277481 0.602192 0.265673 0.606915 0.258588 0.612819 0.2456 0.616362 0.237335 0.622265 0.226708 0.626988 0.217262 0.632892 0.205454 0.636435 0.197188 0.641158 0.185381 0.6447 0.174754 0.185381 0.0661231zm-0.185381 -0.0661231l0.0921 0.0236154 0.0932808 0.0425077 -0.185381 -0.0661231zm1.90694 2.4312l-2.34265 0.262131 -0.00590385 -0.07675 -0.00236154 -0.0247962 -0.00236154 -0.0283385 -0.00236154 -0.0165308 -0.00472308 -0.0247962 -0.00354231 -0.0212538 -0.00118077 -0.00590385 -0.00472308 -0.0141692 -0.00472308 -0.0141692 -0.00118077 -0.00354231 -0.00354231 -0.00826538 -0.00472308 -0.0106269 -0.00590385 -0.00944615 -0.00472308 -0.00944615 -0.00118077 -0.00354231 -0.0118077 -0.01535 -0.00472308 -0.00826538 0.00590385 0.00708462 -0.0129885 -0.0129885 -0.0141692 -0.01535 -0.00708462 -0.00826538 -0.00826538 -0.00708462 -0.00944615 -0.00826538 -0.0188923 -0.01535 -0.0188923 -0.0141692 -0.0106269 -0.00708462 -0.0224346 -0.01535 -0.0165308 -0.0118077 -0.0247962 -0.0129885 -0.0330615 -0.0188923 -0.0271577 -0.0141692 -0.0271577 -0.0141692 -0.0318808 -0.0141692 0.968231 -2.149 0.0814731 0.0377846 0.0814731 0.0401462 0.0814731 0.0425077 0.0708462 0.0401462 0.0791115 0.04605 0.0826538 0.0519538 0.0743885 0.0484115 0.0814731 0.0590385 0.0732077 0.0566769 0.0684846 0.0554962 0.0755692 0.0649423 0.0720269 0.0684846 0.0708462 0.0696654 0.0614 0.0673038 0.0602192 0.0696654 0.0743885 0.0921 0.0590385 0.0814731 0.0495923 0.0743885 0.0578577 0.0909192 0.0495923 0.0873769 0.04605 0.0897385 0.0425077 0.0909192 0.0413269 0.0956423 0.0389654 0.105088 0.0307 0.0944615 0.0283385 0.0991846 0.0271577 0.109812 0.0200731 0.0991846 0.0165308 0.0980038 0.0141692 0.108631 0.00944615 0.0991846 0.00708462 0.10745 -0.00590385 -0.07675zm-2.34265 0.262131l-0.00354231 -0.0354231 -0.00236154 -0.0413269 0.00590385 0.07675zm6.38678 5.9251l-1.17841 2.04273 0 -0.00118077 -0.279842 -0.166488 -0.270396 -0.173573 -0.264492 -0.180658 -0.258588 -0.187742 -0.252685 -0.196008 -0.244419 -0.203092 -0.234973 -0.205454 -0.23025 -0.2149 -0.220804 -0.219623 -0.2149 -0.223165 -0.207815 -0.232612 -0.198369 -0.234973 -0.193646 -0.240877 -0.1842 -0.247962 -0.175935 -0.249142 -0.16885 -0.255046 -0.160585 -0.259769 -0.1535 -0.263312 -0.145235 -0.266854 -0.139331 -0.271577 -0.129885 -0.277481 -0.120438 -0.277481 -0.112173 -0.278662 -0.105088 -0.282204 -0.0991846 -0.29165 -0.0873769 -0.286927 -0.0802923 -0.290469 -0.0720269 -0.296373 -0.0637615 -0.295192 -0.0543154 -0.298735 -0.04605 -0.297554 -0.0389654 -0.301096 2.34265 -0.262131 0.0295192 0.232612 0.0366038 0.236154 0.0425077 0.23025 0.0495923 0.229069 0.0554962 0.227888 0.0637615 0.226708 0.0684846 0.227888 0.0732077 0.218442 0.0838346 0.220804 0.0885577 0.221985 0.0944615 0.216081 0.0991846 0.211358 0.106269 0.210177 0.112173 0.207815 0.120438 0.204273 0.125162 0.203092 0.131065 0.196008 0.13815 0.197188 0.141692 0.188923 0.148777 0.186562 0.155862 0.185381 0.158223 0.175935 0.167669 0.175935 0.173573 0.172392 0.175935 0.162946 0.185381 0.162946 0.187742 0.155862 0.193646 0.148777 0.201912 0.147596 0.205454 0.140512 0.213719 0.135788 0.216081 0.131065 0 -0.00118077zm11.1901 -2.99797l2.04037 1.17841 0 0 -0.282204 0.461681 -0.302277 0.442788 -0.32235 0.425077 -0.341242 0.403823 -0.356592 0.382569 -0.373123 0.362496 -0.388473 0.341242 -0.403823 0.32235 -0.419173 0.299915 -0.427438 0.275119 -0.440427 0.256227 -0.453415 0.233792 -0.459319 0.210177 -0.469946 0.188923 -0.479392 0.166488 -0.486477 0.141692 -0.4912 0.119258 -0.497104 0.0956423 -0.500646 0.0720269 -0.504188 0.0484115 -0.508912 0.0236154 -0.510092 -0.00118077 -0.508912 -0.0259769 -0.511273 -0.0495923 -0.510092 -0.07675 -0.507731 -0.101546 -0.504188 -0.126342 -0.503008 -0.1535 -0.495923 -0.179477 -0.4912 -0.206635 -0.482935 -0.231431 -0.47585 -0.258588 1.17841 -2.04273 0.371942 0.201912 0.376665 0.181838 0.380208 0.159404 0.384931 0.139331 0.387292 0.118077 0.393196 0.0980038 0.394377 0.0802923 0.394377 0.0578577 0.395558 0.0401462 0.395558 0.0188923 0.396738 0.00118077 0.393196 -0.0188923 0.393196 -0.0366038 0.389654 -0.0554962 0.386112 -0.0743885 0.382569 -0.0932808 0.377846 -0.110992 0.370762 -0.128704 0.366038 -0.146415 0.360135 -0.165308 0.349508 -0.179477 0.341242 -0.19955 0.335338 -0.216081 0.32235 -0.231431 0.311723 -0.246781 0.301096 -0.265673 0.290469 -0.282204 0.278662 -0.297554 0.263312 -0.311723 0.249142 -0.328254 0.236154 -0.345965 0.220804 -0.360135 0 0zm1.05088 -3.2176l2.34973 0.196008 -0.00236154 0.0236154 -0.0141692 0.131065 -0.0165308 0.135788 -0.0188923 0.135788 -0.0188923 0.131065 -0.0224346 0.134608 -0.0236154 0.136969 -0.0247962 0.129885 -0.0271577 0.134608 -0.0295192 0.134608 -0.0307 0.134608 -0.0330615 0.128704 -0.0318808 0.129885 -0.0377846 0.140512 -0.0377846 0.127523 -0.0377846 0.126342 -0.0425077 0.13815 -0.0448692 0.133427 -0.0436885 0.127523 -0.0472308 0.131065 -0.0484115 0.127523 -0.0495923 0.129885 -0.0519538 0.129885 -0.0531346 0.127523 -0.0590385 0.134608 -0.0578577 0.127523 -0.0578577 0.1228 -0.0614 0.128704 -0.0649423 0.127523 -0.0637615 0.1228 -0.0673038 0.126342 -0.0684846 0.123981 -0.0708462 0.125162 -2.04037 -1.17841 0.0543154 -0.0968231 0.0543154 -0.0980038 0.0507731 -0.0956423 0.0519538 -0.101546 0.0484115 -0.0968231 0.0472308 -0.0980038 0.0484115 -0.103908 0.04605 -0.0991846 0.0401462 -0.0921 0.0413269 -0.101546 0.0425077 -0.101546 0.0377846 -0.0991846 0.0389654 -0.103908 0.0354231 -0.100365 0.0366038 -0.103908 0.0330615 -0.100365 0.0307 -0.0956423 0.0307 -0.10745 0.0307 -0.106269 0.0259769 -0.0932808 0.0271577 -0.106269 0.0259769 -0.10745 0.0236154 -0.101546 0.0224346 -0.101546 0.0200731 -0.101546 0.0200731 -0.106269 0.0188923 -0.101546 0.01535 -0.101546 0.0165308 -0.10745 0.0141692 -0.102727 0.0118077 -0.100365 0.0118077 -0.10745 -0.00236154 0.0236154zm2.34973 0.196008l0 0.00354231 -0.00236154 0.0200731 0.00236154 -0.0236154zm-0.356592 -2.63548l0.606915 2.27888 0.1228 -0.0401462 -0.0377846 0.0141692 -0.0342423 0.01535 -0.0247962 0.0106269 -0.0247962 0.0141692 -0.0354231 0.0188923 -0.0247962 0.0141692 -0.0165308 0.0106269 -0.0200731 0.0129885 -0.0177115 0.0129885 -0.0236154 0.0177115 -0.00826538 0.00590385 -0.00472308 0.00590385 -0.0118077 0.0106269 -0.00354231 0.00354231 -0.0141692 0.01535 -0.00708462 0.00826538 -0.00590385 0.00944615 0 0 -0.00590385 0.00826538 -0.0106269 0.0177115 0 0.00118077 -0.00236154 0.00354231 -0.00826538 0.0212538 -0.00590385 0.0106269 0 0.00236154 -0.00354231 0.0129885 -0.00472308 0.01535 -0.00354231 0.0177115 -0.00472308 0.0212538 -0.00354231 0.0200731 -0.00354231 0.0236154 -0.00118077 0.0200731 -2.34973 -0.196008 0.0106269 -0.100365 0.0129885 -0.0968231 0.01535 -0.0956423 0.0188923 -0.0944615 0.0224346 -0.0956423 0.0259769 -0.0956423 0.0295192 -0.0956423 0.0377846 -0.103908 0.0366038 -0.0932808 0.0366038 -0.0802923 0.0448692 -0.0956423 0.0543154 -0.0980038 0.04605 -0.07675 0.0531346 -0.0861962 0.0637615 -0.0897385 0.0625808 -0.0802923 0.0637615 -0.07675 0.0614 -0.0696654 0.0743885 -0.0791115 0.0732077 -0.0696654 0.0802923 -0.0720269 0.0838346 -0.0673038 0.0708462 -0.0554962 0.0814731 -0.0578577 0.0814731 -0.0554962 0.0897385 -0.0554962 0.0861962 -0.0495923 0.0779308 -0.0425077 0.0932808 -0.0472308 0.0980038 -0.04605 0.0909192 -0.0389654 0.0921 -0.0377846 0.1228 -0.0401462zm-0.1228 0.0401462l0.0614 -0.0236154 0.0614 -0.0165308 -0.1228 0.0401462zm17.7812 -10.2007l1.66725 1.66725 -0.00236154 0.00236154 -0.484115 0.472308 -0.490019 0.465223 -0.498285 0.458138 -0.505369 0.447512 -0.512454 0.442788 -0.520719 0.432162 -0.526623 0.425077 -0.533708 0.415631 -0.540792 0.408546 -0.547877 0.397919 -0.553781 0.392015 -0.560865 0.381388 -0.56795 0.373123 -0.573854 0.363677 -0.579758 0.354231 -0.585662 0.344785 -0.592746 0.336519 -0.59865 0.327073 -0.603373 0.317627 -0.610458 0.307 -0.614 0.297554 -0.622265 0.288108 -0.625808 0.278662 -0.631712 0.268035 -0.636435 0.258588 -0.6447 0.247962 -0.645881 0.237335 -0.651785 0.226708 -0.657688 0.218442 -0.661231 0.205454 -0.667135 0.194827 -0.670677 0.185381 -0.606915 -2.27888 0.632892 -0.173573 0.62935 -0.185381 0.623446 -0.193646 0.619904 -0.204273 0.616362 -0.2149 0.610458 -0.223165 0.604554 -0.233792 0.601012 -0.244419 0.596288 -0.253865 0.592746 -0.262131 0.584481 -0.271577 0.580938 -0.281023 0.575035 -0.290469 0.570312 -0.298735 0.563227 -0.308181 0.559685 -0.317627 0.5526 -0.325892 0.549058 -0.335338 0.540792 -0.342423 0.534888 -0.351869 0.530165 -0.360135 0.523081 -0.3684 0.517177 -0.376665 0.510092 -0.384931 0.503008 -0.392015 0.498285 -0.401462 0.490019 -0.408546 0.484115 -0.416812 0.477031 -0.423896 0.469946 -0.432162 0.464042 -0.439246 0.455777 -0.446331 -0.00236154 0.00236154zm1.66725 1.66725l-0.00236154 0.00236154 0 0 0.00236154 -0.00236154zm0.00236154 -0.00236154l-0.00236154 0.00236154 -1.66725 -1.66725 0.00236154 -0.00236154 0.0366038 -0.0354231 1.63064 1.70267zm-1.66725 -1.66725l0.0224346 -0.0224346 0.0141692 -0.0129885 -0.0366038 0.0354231zm3.23295 -0.632892l-0.961146 2.15136 -0.0224346 -0.00944615 -0.0236154 -0.0106269 -0.0236154 -0.0106269 -0.0224346 -0.00826538 -0.0212538 -0.00708462 -0.00826538 -0.00236154 -0.0188923 -0.00354231 -0.0165308 -0.00472308 -0.01535 -0.00118077 -0.0165308 -0.00354231 -0.00118077 0 -0.0141692 0 -0.0129885 0 -0.00354231 0 -0.0129885 0.00118077 -0.0129885 0.00118077 -0.00708462 0.00236154 -0.0141692 0.00236154 -0.00708462 0.00118077 -0.0118077 0.00472308 -0.0283385 0.00944615 -0.0118077 0.00472308 -0.0188923 0.00944615 -0.0224346 0.00944615 -0.0188923 0.0106269 -0.0342423 0.0188923 -0.0247962 0.01535 -0.0212538 0.0141692 -0.0342423 0.0247962 -0.0354231 0.0259769 -0.0283385 0.0224346 -0.0377846 0.0342423 -0.0377846 0.0330615 -1.59404 -1.73809 0.0826538 -0.0732077 0.0802923 -0.0673038 0.0921 -0.0743885 0.0850154 -0.0637615 0.0838346 -0.0602192 0.0991846 -0.0661231 0.0956423 -0.0578577 0.0861962 -0.0495923 0.0991846 -0.0531346 0.0980038 -0.0472308 0.101546 -0.0448692 0.106269 -0.0401462 0.0921 -0.0330615 0.108631 -0.0330615 0.110992 -0.0295192 0.106269 -0.0236154 0.113354 -0.0188923 0.105088 -0.0129885 0.10745 -0.0106269 0.116896 -0.00472308 0.10745 0 0.106269 0.00472308 0.116896 0.00944615 0.103908 0.0129885 0.105088 0.0177115 0.103908 0.0212538 0.101546 0.0247962 0.112173 0.0330615 0.0991846 0.0330615 0.0980038 0.0366038 0.0968231 0.0389654 0.0968231 0.0436885 -0.0224346 -0.00944615zm-0.961146 2.15136l-0.0224346 -0.00944615 -0.0236154 -0.0106269 0.04605 0.0200731zm4.29564 -1.44408l0 2.35682 0 0 -0.144054 -0.00118077 -0.136969 -0.00236154 -0.142873 -0.00354231 -0.148777 -0.00708462 -0.141692 -0.00944615 -0.136969 -0.0106269 -0.136969 -0.0118077 -0.140512 -0.0129885 -0.140512 -0.0165308 -0.140512 -0.0177115 -0.139331 -0.0200731 -0.133427 -0.0200731 -0.140512 -0.0236154 -0.132246 -0.0247962 -0.136969 -0.0247962 -0.136969 -0.0295192 -0.132246 -0.0295192 -0.135788 -0.0318808 -0.132246 -0.0330615 -0.132246 -0.0354231 -0.131065 -0.0354231 -0.134608 -0.0389654 -0.131065 -0.0413269 -0.1228 -0.0389654 -0.133427 -0.0436885 -0.131065 -0.0472308 -0.125162 -0.0448692 -0.123981 -0.0472308 -0.128704 -0.0507731 -0.125162 -0.0519538 -0.121619 -0.0507731 -0.125162 -0.0554962 0.961146 -2.15136 0.0944615 0.0413269 0.0980038 0.0413269 0.0968231 0.0401462 0.0956423 0.0366038 0.100365 0.0377846 0.101546 0.0377846 0.0956423 0.0330615 0.0956423 0.0318808 0.108631 0.0342423 0.100365 0.0318808 0.0968231 0.0271577 0.105088 0.0307 0.101546 0.0259769 0.103908 0.0259769 0.102727 0.0247962 0.106269 0.0224346 0.103908 0.0224346 0.103908 0.0200731 0.108631 0.0200731 0.102727 0.0165308 0.112173 0.0177115 0.103908 0.01535 0.10745 0.0129885 0.105088 0.0118077 0.10745 0.0106269 0.113354 0.00944615 0.113354 0.00826538 0.108631 0.00708462 0.103908 0.00472308 0.109812 0.00354231 0.115715 0.00236154 0.110992 0.00118077 0 0zm8.191 -8.191l2.35682 0 0 0 -0.0129885 0.540792 -0.0413269 0.536069 -0.0661231 0.526623 -0.0932808 0.5219 -0.118077 0.510092 -0.142873 0.500646 -0.166488 0.490019 -0.188923 0.480573 -0.211358 0.466404 -0.232612 0.454596 -0.253865 0.442788 -0.275119 0.427438 -0.292831 0.412088 -0.312904 0.3991 -0.332977 0.38375 -0.348327 0.366038 -0.364858 0.347146 -0.38375 0.332977 -0.397919 0.311723 -0.413269 0.295192 -0.428619 0.273938 -0.441608 0.253865 -0.454596 0.232612 -0.467585 0.211358 -0.479392 0.188923 -0.490019 0.166488 -0.500646 0.142873 -0.510092 0.118077 -0.5219 0.0932808 -0.526623 0.0661231 -0.536069 0.0413269 -0.540792 0.0129885 0 -2.35682 0.422715 -0.0106269 0.415631 -0.0318808 0.410908 -0.0519538 0.401462 -0.0720269 0.396738 -0.0921 0.387292 -0.109812 0.381388 -0.128704 0.370762 -0.146415 0.363677 -0.164127 0.35305 -0.180658 0.342423 -0.197188 0.331796 -0.212538 0.321169 -0.229069 0.310542 -0.243238 0.296373 -0.257408 0.284565 -0.271577 0.272758 -0.285746 0.257408 -0.296373 0.242058 -0.309362 0.229069 -0.32235 0.213719 -0.332977 0.197188 -0.341242 0.180658 -0.35305 0.164127 -0.362496 0.146415 -0.371942 0.128704 -0.381388 0.109812 -0.387292 0.0921 -0.396738 0.0720269 -0.401462 0.0519538 -0.410908 0.0318808 -0.415631 0.0106269 -0.422715 0 0zm-3.27191 -6.55327l1.26815 -1.98605 0.0649423 0.0448692 0.242058 0.183019 0.234973 0.190104 0.23025 0.196008 0.226708 0.204273 0.217262 0.210177 0.211358 0.213719 0.206635 0.220804 0.200731 0.229069 0.192465 0.232612 0.186562 0.236154 0.180658 0.244419 0.174754 0.252685 0.164127 0.252685 0.159404 0.258588 0.1535 0.266854 0.142873 0.268035 0.136969 0.273938 0.128704 0.281023 0.119258 0.278662 0.113354 0.288108 0.105088 0.29165 0.0968231 0.295192 0.0873769 0.297554 0.0791115 0.301096 0.0708462 0.308181 0.0614 0.309362 0.0519538 0.309362 0.0436885 0.315265 0.0330615 0.319988 0.0236154 0.318808 0.01535 0.321169 0.00472308 0.325892 -2.35682 0 -0.00472308 -0.252685 -0.0106269 -0.252685 -0.0188923 -0.250323 -0.0259769 -0.244419 -0.0342423 -0.244419 -0.0401462 -0.243238 -0.0472308 -0.238515 -0.0543154 -0.234973 -0.0625808 -0.234973 -0.0684846 -0.233792 -0.0732077 -0.226708 -0.0814731 -0.225527 -0.0873769 -0.221985 -0.0956423 -0.221985 -0.0980038 -0.2149 -0.106269 -0.210177 -0.112173 -0.211358 -0.115715 -0.203092 -0.123981 -0.201912 -0.131065 -0.200731 -0.132246 -0.191285 -0.140512 -0.187742 -0.146415 -0.188923 -0.149958 -0.180658 -0.155862 -0.177115 -0.159404 -0.171212 -0.166488 -0.16885 -0.170031 -0.162946 -0.172392 -0.157042 -0.180658 -0.1535 -0.183019 -0.147596 -0.187742 -0.142873 0.0649423 0.0448692zm1.26815 -1.98605l0.0307 0.0188923 0.0342423 0.0259769 -0.0649423 -0.0448692zm-2.50559 -0.792296l2.35682 0 -0.01535 0.188923 -0.00590385 0.0401462 -0.00472308 0.0413269 -0.00472308 0.0484115 -0.00354231 0.0366038 -0.00118077 0.0271577 -0.00118077 0.0330615 0 0.0330615 0.00118077 0.0307 0.00118077 0.0188923 0.00354231 0.0283385 0.00236154 0.0247962 0.00118077 0.00354231 0.00472308 0.0247962 0.00472308 0.0212538 0.00354231 0.00944615 0.00236154 0.00826538 0.00354231 0.0106269 0.00944615 0.0212538 0.00354231 0.00826538 -0.00118077 -0.00236154 0.00472308 0.00826538 0.00590385 0.00708462 0 0.00118077 0.0129885 0.01535 0.00944615 0.0118077 0.00590385 0.00590385 0.0188923 0.0200731 0.0106269 0.00944615 0.0129885 0.0106269 0.0165308 0.0129885 0.0200731 0.0141692 0.0271577 0.0188923 -1.26815 1.98605 -0.0932808 -0.0614 -0.0932808 -0.0661231 -0.0921 -0.0720269 -0.0885577 -0.0743885 -0.0861962 -0.0802923 -0.0732077 -0.0720269 -0.0814731 -0.0861962 -0.0708462 -0.0850154 -0.0649423 -0.0814731 -0.0708462 -0.0980038 -0.0602192 -0.0944615 -0.0566769 -0.0956423 -0.0578577 -0.108631 -0.04605 -0.100365 -0.0377846 -0.0897385 -0.0389654 -0.100365 -0.0354231 -0.105088 -0.0295192 -0.106269 -0.0236154 -0.0968231 -0.0212538 -0.0956423 -0.0200731 -0.116896 -0.0118077 -0.0980038 -0.0106269 -0.0968231 -0.00590385 -0.108631 -0.00354231 -0.0968231 0 -0.0968231 0.00118077 -0.0968231 0.00590385 -0.10745 0.00826538 -0.0980038 0.00944615 -0.0861962 0.0118077 -0.0956423 0.01535 -0.0991846 -0.01535 0.188923zm2.35682 0l0 0.0944615 -0.01535 0.0944615 0.01535 -0.188923zm0 -0.00236154l0 0.00236154 -2.35682 0 0 -0.00236154 0.0401462 -0.304638 2.31667 0.304638zm-2.35682 0l0 -0.154681 0.0401462 -0.149958 -0.0401462 0.304638zm1.37678 -10.51l2.35682 0 0 0 -0.00118077 0.350688 -0.00472308 0.349508 -0.00708462 0.347146 -0.00944615 0.349508 -0.0141692 0.348327 -0.01535 0.344785 -0.0177115 0.344785 -0.0212538 0.345965 -0.0247962 0.347146 -0.0271577 0.342423 -0.0295192 0.342423 -0.0330615 0.342423 -0.0342423 0.340062 -0.0377846 0.341242 -0.0413269 0.338881 -0.0425077 0.338881 -0.0472308 0.341242 -0.0495923 0.335338 -0.0507731 0.335338 -0.0543154 0.334158 -0.0554962 0.335338 -0.0602192 0.334158 -0.0625808 0.334158 -0.0649423 0.331796 -0.0673038 0.329435 -0.0696654 0.330615 -0.0720269 0.327073 -0.0755692 0.329435 -0.0779308 0.327073 -0.0802923 0.327073 -0.0826538 0.323531 -0.0850154 0.324712 -2.27652 -0.609277 0.0802923 -0.305819 0.0779308 -0.307 0.0755692 -0.305819 0.0732077 -0.310542 0.0708462 -0.308181 0.0673038 -0.310542 0.0673038 -0.311723 0.0625808 -0.312904 0.0625808 -0.312904 0.0578577 -0.312904 0.0554962 -0.312904 0.0531346 -0.316446 0.0519538 -0.317627 0.0484115 -0.318808 0.0472308 -0.318808 0.0425077 -0.315265 0.0401462 -0.319988 0.0389654 -0.32235 0.0354231 -0.319988 0.0342423 -0.323531 0.0307 -0.321169 0.0271577 -0.325892 0.0271577 -0.325892 0.0224346 -0.321169 0.0188923 -0.324712 0.0177115 -0.328254 0.01535 -0.328254 0.0118077 -0.327073 0.00944615 -0.328254 0.00708462 -0.330615 0.00472308 -0.330615 0.00118077 -0.329435 0 0zm-1.36497 -10.3246l2.32139 -0.413269 -0.0224346 -0.0980038 0.0850154 0.323531 0.0838346 0.325892 0.0802923 0.328254 0.0779308 0.325892 0.0755692 0.329435 0.0720269 0.328254 0.0708462 0.331796 0.0673038 0.331796 0.0649423 0.330615 0.0625808 0.334158 0.0590385 0.335338 0.0578577 0.332977 0.0543154 0.335338 0.0519538 0.3377 0.0495923 0.340062 0.04605 0.3377 0.0425077 0.338881 0.0425077 0.341242 0.0377846 0.342423 0.0342423 0.340062 0.0330615 0.342423 0.0307 0.344785 0.0259769 0.344785 0.0247962 0.343604 0.0224346 0.347146 0.0177115 0.347146 0.01535 0.345965 0.0141692 0.349508 0.00944615 0.349508 0.00708462 0.348327 0.00472308 0.349508 0.00118077 0.351869 -2.35682 0 -0.00118077 -0.330615 -0.00472308 -0.330615 -0.00708462 -0.331796 -0.00944615 -0.328254 -0.0118077 -0.328254 -0.01535 -0.329435 -0.0177115 -0.325892 -0.0200731 -0.325892 -0.0224346 -0.327073 -0.0259769 -0.325892 -0.0283385 -0.323531 -0.0307 -0.323531 -0.0342423 -0.323531 -0.0354231 -0.321169 -0.0377846 -0.319988 -0.0425077 -0.32235 -0.0436885 -0.321169 -0.0448692 -0.316446 -0.0495923 -0.316446 -0.0519538 -0.318808 -0.0531346 -0.316446 -0.0566769 -0.316446 -0.0578577 -0.312904 -0.0625808 -0.314085 -0.0625808 -0.312904 -0.0661231 -0.310542 -0.0696654 -0.311723 -0.0708462 -0.310542 -0.0732077 -0.309362 -0.0755692 -0.307 -0.0791115 -0.307 -0.0802923 -0.307 -0.0224346 -0.0980038zm0.0224346 0.0980038l-0.01535 -0.0554962 -0.00708462 -0.0425077 0.0224346 0.0980038zm1.08631 -2.99679l1.38386 1.90812 -0.0212538 0.01535 -0.0200731 0.0141692 -0.0188923 0.0141692 -0.0177115 0.01535 -0.01535 0.0129885 -0.00708462 0.00708462 -0.00708462 0.00590385 -0.01535 0.0188923 -0.00472308 0.00354231 -0.00708462 0.0118077 -0.00826538 0.0106269 -0.00118077 0.00236154 -0.00708462 0.0106269 -0.00708462 0.0129885 -0.00118077 0.00236154 -0.00118077 0.00354231 -0.0106269 0.0271577 -0.00118077 0.00118077 -0.00118077 0.00590385 -0.00590385 0.0212538 -0.00354231 0.0165308 -0.00236154 0.0118077 -0.00236154 0.0141692 -0.00236154 0.0247962 -0.00236154 0.0295192 -0.00118077 0.0188923 0 0.0236154 0.00118077 0.0354231 0.00118077 0.0271577 0.00354231 0.0413269 0.00236154 0.0330615 0.00590385 0.0366038 0.00826538 0.0472308 -2.32139 0.413269 -0.01535 -0.0968231 -0.01535 -0.10745 -0.0118077 -0.106269 -0.00826538 -0.0980038 -0.00590385 -0.10745 -0.00118077 -0.0968231 0 -0.108631 0.00590385 -0.108631 0.00708462 -0.0980038 0.0118077 -0.0980038 0.0141692 -0.106269 0.0212538 -0.108631 0.0224346 -0.0991846 0.0247962 -0.0921 0.0318808 -0.10745 0.0389654 -0.10745 0.0318808 -0.0791115 0.0436885 -0.102727 0.0507731 -0.0991846 0.0472308 -0.0885577 0.0519538 -0.0861962 0.0602192 -0.0944615 0.0602192 -0.0814731 0.0614 -0.0802923 0.0708462 -0.0838346 0.0625808 -0.0684846 0.0755692 -0.0791115 0.0802923 -0.0755692 0.0743885 -0.0649423 0.07675 -0.0625808 0.0802923 -0.0614 0.0814731 -0.0590385 -0.0212538 0.01535zm1.38386 1.90812l-0.0188923 0.0141692 -0.00236154 0.00118077 0.0212538 -0.01535zm0.896204 -4.44323l2.04037 1.17841 0.00118077 0 -0.0720269 0.1228 -0.07675 0.125162 -0.0720269 0.116896 -0.0755692 0.119258 -0.0802923 0.120438 -0.0779308 0.115715 -0.0814731 0.115715 -0.0802923 0.110992 -0.0826538 0.113354 -0.0873769 0.114535 -0.0850154 0.108631 -0.0873769 0.109812 -0.0885577 0.106269 -0.0897385 0.106269 -0.0885577 0.101546 -0.0921 0.103908 -0.0956423 0.103908 -0.0932808 0.0980038 -0.0932808 0.0968231 -0.0991846 0.100365 -0.0980038 0.0968231 -0.0968231 0.0921 -0.100365 0.0932808 -0.101546 0.0932808 -0.0991846 0.0873769 -0.102727 0.0897385 -0.106269 0.0885577 -0.106269 0.0861962 -0.102727 0.0814731 -0.105088 0.0826538 -0.112173 0.0850154 -0.10745 0.0779308 -1.38386 -1.90812 0.0861962 -0.0637615 0.0791115 -0.0590385 0.0838346 -0.0661231 0.0861962 -0.0673038 0.0779308 -0.0649423 0.0802923 -0.0673038 0.0791115 -0.0684846 0.0802923 -0.0708462 0.0779308 -0.0696654 0.07675 -0.0720269 0.0779308 -0.0755692 0.07675 -0.0732077 0.0708462 -0.0720269 0.07675 -0.0802923 0.0743885 -0.0791115 0.0696654 -0.0755692 0.0708462 -0.0802923 0.0720269 -0.0826538 0.0708462 -0.0826538 0.0673038 -0.0826538 0.0684846 -0.0838346 0.0661231 -0.0850154 0.0637615 -0.0838346 0.0637615 -0.0873769 0.0661231 -0.0921 0.0625808 -0.0897385 0.0614 -0.0897385 0.0590385 -0.0897385 0.0590385 -0.0932808 0.0625808 -0.0980038 0.0554962 -0.0921 0.0554962 -0.0968231 0.00118077 0zm-2.99797 -11.1878l1.17841 -2.04273 0 0.00118077 0.461681 0.282204 0.442788 0.302277 0.425077 0.32235 0.403823 0.341242 0.382569 0.356592 0.362496 0.374304 0.341242 0.388473 0.321169 0.402642 0.298735 0.417992 0.277481 0.428619 0.255046 0.440427 0.233792 0.451054 0.212538 0.462862 0.186562 0.471127 0.166488 0.477031 0.141692 0.485296 0.119258 0.4912 0.0956423 0.497104 0.0720269 0.501827 0.0484115 0.504188 0.0236154 0.507731 0 0.510092 -0.0271577 0.511273 -0.0495923 0.510092 -0.07675 0.508912 -0.100365 0.508912 -0.128704 0.504188 -0.152319 0.501827 -0.179477 0.495923 -0.206635 0.4912 -0.231431 0.482935 -0.259769 0.47585 -2.04037 -1.17841 0.200731 -0.371942 0.181838 -0.376665 0.159404 -0.380208 0.139331 -0.384931 0.119258 -0.388473 0.0980038 -0.390835 0.0791115 -0.393196 0.0578577 -0.395558 0.0401462 -0.396738 0.0200731 -0.395558 0 -0.394377 -0.0188923 -0.394377 -0.0366038 -0.393196 -0.0554962 -0.390835 -0.0743885 -0.386112 -0.0932808 -0.382569 -0.110992 -0.376665 -0.128704 -0.373123 -0.146415 -0.364858 -0.162946 -0.356592 -0.181838 -0.351869 -0.198369 -0.341242 -0.216081 -0.334158 -0.232612 -0.323531 -0.247962 -0.312904 -0.263312 -0.301096 -0.282204 -0.289288 -0.297554 -0.278662 -0.311723 -0.263312 -0.328254 -0.249142 -0.345965 -0.236154 -0.360135 -0.220804 0 0.00118077zm-7.31132 -0.443969l-1.08631 -2.09232 0.0720269 -0.0342423 0.279842 -0.116896 0.282204 -0.108631 0.284565 -0.101546 0.288108 -0.0921 0.29165 -0.0850154 0.292831 -0.07675 0.294012 -0.0673038 0.297554 -0.0602192 0.298735 -0.0495923 0.297554 -0.0425077 0.302277 -0.0342423 0.304638 -0.0259769 0.303458 -0.01535 0.303458 -0.00826538 0.304638 0.00118077 0.304638 0.00944615 0.307 0.0188923 0.304638 0.0271577 0.305819 0.0366038 0.304638 0.04605 0.303458 0.0543154 0.303458 0.0637615 0.302277 0.0732077 0.302277 0.0826538 0.299915 0.0921 0.298735 0.101546 0.296373 0.110992 0.292831 0.119258 0.292831 0.129885 0.289288 0.139331 0.285746 0.148777 0.284565 0.157042 -1.17841 2.04273 -0.220804 -0.123981 -0.224346 -0.115715 -0.225527 -0.108631 -0.224346 -0.0991846 -0.231431 -0.0932808 -0.23025 -0.0873769 -0.23025 -0.0779308 -0.231431 -0.0708462 -0.233792 -0.0637615 -0.233792 -0.0566769 -0.234973 -0.0495923 -0.237335 -0.0425077 -0.236154 -0.0366038 -0.234973 -0.0271577 -0.238515 -0.0224346 -0.236154 -0.0141692 -0.236154 -0.00708462 -0.238515 -0.00118077 -0.237335 0.00590385 -0.234973 0.0129885 -0.233792 0.0188923 -0.233792 0.0271577 -0.236154 0.0330615 -0.23025 0.0401462 -0.231431 0.04605 -0.23025 0.0531346 -0.226708 0.0578577 -0.225527 0.0661231 -0.224346 0.0732077 -0.223165 0.0779308 -0.220804 0.0850154 -0.216081 0.0909192 0.0720269 -0.0342423zm-1.08631 -2.09232l0.0342423 -0.0177115 0.0377846 -0.0165308 -0.0720269 0.0342423zm-0.641158 1.6944l-1.41456 -1.88687 1.45235 0.0307 0.0366038 0.0295192 0.0259769 0.0188923 0.0354231 0.0247962 0.0413269 0.0295192 0.0259769 0.0177115 0.0200731 0.0118077 0.0271577 0.01535 0.0236154 0.0129885 0.0212538 0.00944615 0.0342423 0.01535 0.01535 0.00826538 0.00826538 0.00236154 0.0271577 0.00826538 0.01535 0.00590385 0.00118077 0 0.0224346 0.00354231 0.0141692 0.00354231 0 0 0.0141692 0.00118077 0.0141692 0 0.00236154 0 0.00354231 0 0.0177115 -0.00236154 0.0165308 -0.00236154 0.00708462 0 0.00118077 -0.00118077 0.0165308 -0.00472308 0.0271577 -0.00826538 0.0212538 -0.00708462 0.0200731 -0.00826538 0.0224346 -0.0106269 0.0236154 -0.0118077 1.08631 2.09232 -0.103908 0.0519538 -0.105088 0.04605 -0.10745 0.0436885 -0.106269 0.0377846 -0.0980038 0.0318808 -0.108631 0.0307 -0.121619 0.0271577 -0.115715 0.0212538 -0.106269 0.0141692 -0.105088 0.00944615 -0.116896 0.00708462 -0.118077 0 -0.106269 -0.00472308 -0.106269 -0.00826538 -0.118077 -0.0141692 -0.103908 -0.0177115 -0.0956423 -0.0200731 -0.114535 -0.0283385 -0.100365 -0.0295192 -0.0885577 -0.0295192 -0.10745 -0.0401462 -0.100365 -0.0413269 -0.0791115 -0.0366038 -0.0921 -0.0448692 -0.0897385 -0.0484115 -0.0861962 -0.0484115 -0.0909192 -0.0566769 -0.0850154 -0.0554962 -0.0696654 -0.0484115 -0.0755692 -0.0531346 -0.0850154 -0.0661231 -0.0720269 -0.0578577 1.45235 0.0307zm-1.41456 -1.88687l0.7368 -0.5526 0.715546 0.5833 -1.45235 -0.0307zm-0.00472308 0.00354231l0.00472308 -0.00354231 1.41456 1.88687 -0.00472308 0.00354231 -1.5409 -0.109812 0.126342 -1.77706zm1.41456 1.88687l-0.818273 0.612819 -0.722631 -0.722631 1.5409 0.109812zm-18.9147 -10.2857l0 -2.35682 0.304638 0.0401462 0.671858 0.185381 0.668315 0.197188 0.662412 0.206635 0.658869 0.218442 0.652965 0.229069 0.648242 0.238515 0.642338 0.249142 0.637615 0.258588 0.635254 0.270396 0.625808 0.281023 0.622265 0.289288 0.616362 0.299915 0.610458 0.308181 0.605735 0.319988 0.597469 0.328254 0.592746 0.3377 0.586842 0.347146 0.580938 0.355412 0.575035 0.366038 0.56795 0.374304 0.560865 0.38375 0.554962 0.393196 0.549058 0.401462 0.539612 0.409727 0.533708 0.417992 0.527804 0.426258 0.520719 0.435704 0.512454 0.442788 0.50655 0.452235 0.498285 0.459319 0.490019 0.467585 0.482935 0.474669 -1.66725 1.66725 -0.456958 -0.448692 -0.461681 -0.441608 -0.469946 -0.433342 -0.478212 -0.426258 -0.484115 -0.419173 -0.490019 -0.409727 -0.497104 -0.402642 -0.505369 -0.394377 -0.511273 -0.388473 -0.515996 -0.377846 -0.524262 -0.369581 -0.530165 -0.362496 -0.534888 -0.35305 -0.541973 -0.344785 -0.547877 -0.336519 -0.553781 -0.328254 -0.559685 -0.318808 -0.564408 -0.309362 -0.570312 -0.301096 -0.577396 -0.29165 -0.580938 -0.283385 -0.586842 -0.272758 -0.592746 -0.264492 -0.595108 -0.253865 -0.602192 -0.244419 -0.606915 -0.234973 -0.612819 -0.226708 -0.615181 -0.2149 -0.621085 -0.206635 -0.624627 -0.194827 -0.630531 -0.185381 -0.634073 -0.175935 0.304638 0.0401462zm0 -2.35682l0.154681 0 0.149958 0.0401462 -0.304638 -0.0401462zm-0.00236154 0l0.00236154 0 0 2.35682 -0.00236154 0 -0.419173 -0.07675 0.419173 -2.28007zm0 2.35682l-0.217262 0 -0.201912 -0.07675 0.419173 0.07675zm-2.3698 -2.55046l2.34265 -0.264492 0.00590385 0.0802923 0.00236154 0.0259769 0.00236154 0.0271577 0.00472308 0.0354231 0.00236154 0.0188923 0.00236154 0.00826538 0.00472308 0.0188923 0.00354231 0.00944615 0.00354231 0.00944615 0.00708462 0.0177115 0.00354231 0.00944615 0.00590385 0.0106269 0.00354231 0.00708462 0.00708462 0.0106269 0.00472308 0.00708462 0.00590385 0.00708462 0.00708462 0.00944615 0.00826538 0.00826538 0.0129885 0.0141692 0.00826538 0.00944615 0.0177115 0.0141692 0.0165308 0.0141692 0.0106269 0.00826538 0.01535 0.0118077 0.0224346 0.0141692 0.0295192 0.0188923 0.0247962 0.01535 0.0283385 0.01535 0.0295192 0.01535 0.0247962 0.0118077 0.0377846 0.0165308 0.0484115 0.0200731 0.0342423 0.0141692 -0.838346 2.20332 -0.0956423 -0.0377846 -0.0791115 -0.0342423 -0.0873769 -0.0377846 -0.0980038 -0.0472308 -0.0885577 -0.04605 -0.0873769 -0.0484115 -0.0861962 -0.0507731 -0.0791115 -0.0495923 -0.0838346 -0.0566769 -0.0861962 -0.0614 -0.0861962 -0.0673038 -0.0779308 -0.0661231 -0.0743885 -0.0684846 -0.0791115 -0.0755692 -0.0696654 -0.0732077 -0.0720269 -0.0814731 -0.0684846 -0.0850154 -0.0673038 -0.0897385 -0.0614 -0.0921 -0.0566769 -0.0909192 -0.0554962 -0.0991846 -0.0507731 -0.100365 -0.04605 -0.101546 -0.0401462 -0.0980038 -0.0389654 -0.108631 -0.0342423 -0.113354 -0.0283385 -0.108631 -0.0259769 -0.119258 -0.0188923 -0.113354 -0.0141692 -0.101546 -0.0118077 -0.112173 -0.00708462 -0.118077 0.00590385 0.0802923zm2.34265 -0.264492l0.00354231 0.0342423 0.00236154 0.04605 -0.00590385 -0.0802923zm-6.38796 -5.92392l1.17841 -2.04273 0 0.00118077 0.279842 0.166488 0.269215 0.173573 0.266854 0.180658 0.258588 0.188923 0.251504 0.194827 0.244419 0.203092 0.233792 0.204273 0.231431 0.213719 0.223165 0.223165 0.212538 0.221985 0.207815 0.231431 0.200731 0.238515 0.191285 0.238515 0.1842 0.246781 0.177115 0.250323 0.16885 0.255046 0.161765 0.262131 0.151138 0.26095 0.146415 0.266854 0.139331 0.273938 0.127523 0.272758 0.121619 0.277481 0.113354 0.283385 0.105088 0.282204 0.0968231 0.286927 0.0897385 0.289288 0.0791115 0.290469 0.0720269 0.292831 0.0649423 0.298735 0.0543154 0.298735 0.04605 0.297554 0.0389654 0.299915 -2.34265 0.264492 -0.0295192 -0.233792 -0.0366038 -0.236154 -0.0425077 -0.23025 -0.0484115 -0.225527 -0.0578577 -0.231431 -0.0625808 -0.226708 -0.0684846 -0.225527 -0.0755692 -0.223165 -0.0814731 -0.220804 -0.0873769 -0.217262 -0.0956423 -0.216081 -0.101546 -0.216081 -0.103908 -0.207815 -0.113354 -0.207815 -0.120438 -0.206635 -0.123981 -0.200731 -0.131065 -0.196008 -0.136969 -0.196008 -0.144054 -0.190104 -0.148777 -0.188923 -0.1535 -0.181838 -0.160585 -0.177115 -0.167669 -0.177115 -0.171212 -0.16885 -0.177115 -0.164127 -0.186562 -0.164127 -0.187742 -0.155862 -0.194827 -0.149958 -0.19955 -0.146415 -0.205454 -0.140512 -0.2149 -0.135788 -0.216081 -0.131065 0 0.00118077zm-11.189 2.99915l-2.04037 -1.18077 -0.00118077 0.00118077 0.283385 -0.461681 0.302277 -0.442788 0.32235 -0.425077 0.340062 -0.402642 0.356592 -0.382569 0.374304 -0.363677 0.389654 -0.342423 0.402642 -0.319988 0.416812 -0.299915 0.4298 -0.2763 0.440427 -0.256227 0.451054 -0.232612 0.4605 -0.211358 0.469946 -0.188923 0.479392 -0.166488 0.486477 -0.141692 0.4912 -0.119258 0.497104 -0.0956423 0.500646 -0.0720269 0.504188 -0.0484115 0.508912 -0.0236154 0.510092 0.00118077 0.508912 0.0259769 0.511273 0.0495923 0.510092 0.07675 0.507731 0.101546 0.504188 0.126342 0.503008 0.1535 0.495923 0.179477 0.4912 0.206635 0.482935 0.231431 0.47585 0.258588 -1.17841 2.04273 -0.371942 -0.201912 -0.376665 -0.181838 -0.380208 -0.159404 -0.384931 -0.139331 -0.387292 -0.118077 -0.393196 -0.0980038 -0.394377 -0.0802923 -0.394377 -0.0578577 -0.395558 -0.0401462 -0.395558 -0.0188923 -0.396738 -0.00118077 -0.393196 0.0188923 -0.393196 0.0366038 -0.389654 0.0554962 -0.386112 0.0743885 -0.382569 0.0932808 -0.377846 0.110992 -0.370762 0.128704 -0.366038 0.146415 -0.358954 0.164127 -0.349508 0.180658 -0.343604 0.19955 -0.332977 0.2149 -0.32235 0.231431 -0.312904 0.249142 -0.302277 0.264492 -0.289288 0.281023 -0.2763 0.297554 -0.264492 0.312904 -0.249142 0.328254 -0.236154 0.345965 -0.219623 0.360135 -0.00118077 0.00118077zm-1.05207 3.21642l-2.34973 -0.196008 0.00236154 -0.0236154 0.01535 -0.136969 0.0165308 -0.129885 0.0165308 -0.129885 0.0212538 -0.142873 0.0236154 -0.134608 0.0224346 -0.131065 0.0247962 -0.129885 0.0271577 -0.134608 0.0295192 -0.134608 0.0295192 -0.128704 0.0330615 -0.134608 0.0342423 -0.135788 0.0354231 -0.128704 0.0377846 -0.133427 0.0401462 -0.132246 0.0401462 -0.127523 0.0436885 -0.133427 0.0448692 -0.132246 0.0472308 -0.131065 0.0495923 -0.132246 0.0495923 -0.125162 0.0507731 -0.129885 0.0566769 -0.132246 0.0566769 -0.129885 0.0566769 -0.1228 0.0578577 -0.127523 0.0625808 -0.128704 0.0614 -0.1228 0.0684846 -0.132246 0.0684846 -0.126342 0.0661231 -0.119258 0.0708462 -0.126342 2.04037 1.18077 -0.0543154 0.0956423 -0.0566769 0.102727 -0.0519538 0.0956423 -0.0472308 0.0921 -0.0495923 0.101546 -0.0484115 0.0980038 -0.04605 0.0991846 -0.0472308 0.103908 -0.0425077 0.0968231 -0.0401462 0.0968231 -0.0413269 0.101546 -0.0401462 0.103908 -0.0377846 0.0991846 -0.0354231 0.100365 -0.0354231 0.0991846 -0.0318808 0.100365 -0.0330615 0.106269 -0.0307 0.101546 -0.0283385 0.100365 -0.0283385 0.105088 -0.0271577 0.100365 -0.0236154 0.101546 -0.0247962 0.10745 -0.0224346 0.101546 -0.0200731 0.101546 -0.0200731 0.106269 -0.0200731 0.10745 -0.0165308 0.101546 -0.0141692 0.0956423 -0.0141692 0.108631 -0.0141692 0.106269 -0.0106269 0.101546 0.00236154 -0.0236154zm-2.34973 -0.196008l0 -0.00472308 0.00236154 -0.0188923 -0.00236154 0.0236154zm0.490019 2.56109l-1.24925 -1.99786 0.271577 -0.125162 0.0436885 -0.0141692 0.04605 -0.0177115 0.0472308 -0.0177115 0.0295192 -0.0118077 0.0366038 -0.0177115 0.0377846 -0.0188923 0.0307 -0.01535 0.0236154 -0.0129885 0.01535 -0.0106269 0.0200731 -0.0129885 0.0188923 -0.0141692 0.0165308 -0.0129885 0.0200731 -0.0177115 0.0129885 -0.0106269 0.00472308 -0.00472308 0.00826538 -0.00944615 0.00826538 -0.00944615 0.00590385 -0.00826538 0.00708462 -0.0106269 0.00944615 -0.0129885 0.00354231 -0.00590385 0.00118077 -0.00236154 0.00236154 -0.00354231 0.00354231 -0.00944615 0.00826538 -0.0236154 0.00590385 -0.0165308 0.00354231 -0.0129885 0.00354231 -0.0129885 0.00354231 -0.0165308 0.00354231 -0.0165308 0.00354231 -0.0295192 0.00236154 -0.0271577 2.34973 0.196008 -0.0118077 0.105088 -0.0129885 0.100365 -0.0177115 0.108631 -0.0224346 0.108631 -0.0271577 0.10745 -0.0318808 0.10745 -0.0342423 0.0991846 -0.0342423 0.0897385 -0.0436885 0.103908 -0.0495923 0.105088 -0.0554962 0.103908 -0.0578577 0.0956423 -0.0566769 0.0885577 -0.0637615 0.0885577 -0.0673038 0.0861962 -0.0720269 0.0850154 -0.0743885 0.0802923 -0.0826538 0.0826538 -0.0814731 0.0743885 -0.07675 0.0649423 -0.0850154 0.0673038 -0.0873769 0.0637615 -0.0909192 0.0625808 -0.0980038 0.0602192 -0.0968231 0.0554962 -0.0944615 0.0507731 -0.0921 0.0448692 -0.0956423 0.0436885 -0.109812 0.0472308 -0.0968231 0.0366038 -0.100365 0.0366038 -0.109812 0.0354231 0.271577 -0.125162zm-1.24925 -1.99786l0.128704 -0.0802923 0.142873 -0.0448692 -0.271577 0.125162zm-0.00944615 0.00590385l0.00944615 -0.00590385 1.24925 1.99786 -0.00944615 0.00590385 -0.317627 0.139331 -0.931627 -2.13719zm1.24925 1.99786l-0.151138 0.0944615 -0.166488 0.0448692 0.317627 -0.139331zm-17.7777 10.2184l-1.66725 -1.66725 0.00354231 -0.00236154 0.479392 -0.468765 0.485296 -0.4605 0.493562 -0.453415 0.501827 -0.44515 0.507731 -0.436885 0.513635 -0.427438 0.520719 -0.421535 0.530165 -0.412088 0.534888 -0.403823 0.539612 -0.394377 0.549058 -0.387292 0.553781 -0.377846 0.562046 -0.370762 0.56795 -0.358954 0.571492 -0.350688 0.579758 -0.342423 0.584481 -0.332977 0.591565 -0.324712 0.596288 -0.315265 0.602192 -0.304638 0.609277 -0.295192 0.612819 -0.286927 0.618723 -0.2763 0.624627 -0.266854 0.630531 -0.257408 0.635254 -0.2456 0.638796 -0.237335 0.645881 -0.226708 0.650604 -0.217262 0.654146 -0.204273 0.657688 -0.197188 0.665954 -0.185381 0.614 2.27652 -0.625808 0.173573 -0.622265 0.185381 -0.618723 0.194827 -0.612819 0.203092 -0.608096 0.2149 -0.603373 0.223165 -0.599831 0.233792 -0.592746 0.240877 -0.589204 0.252685 -0.5833 0.259769 -0.579758 0.270396 -0.573854 0.278662 -0.566769 0.288108 -0.563227 0.296373 -0.558504 0.305819 -0.551419 0.314085 -0.546696 0.323531 -0.540792 0.331796 -0.534888 0.340062 -0.528985 0.347146 -0.523081 0.356592 -0.515996 0.366038 -0.511273 0.373123 -0.50655 0.380208 -0.497104 0.388473 -0.492381 0.397919 -0.485296 0.403823 -0.479392 0.413269 -0.473488 0.419173 -0.465223 0.427438 -0.459319 0.434523 -0.453415 0.442788 0.00354231 -0.00236154zm-1.66725 -1.66725l0.00354231 -0.00236154 -0.175935 0.174754 0.172392 -0.172392zm-0.00236154 0.00236154l0.00236154 -0.00236154 1.66725 1.66725 -0.00236154 0.00236154 -0.0366038 0.0354231 -1.63064 -1.70267zm1.66725 1.66725l-0.0224346 0.0224346 -0.0141692 0.0129885 0.0366038 -0.0354231zm-3.23649 0.643519l0.961146 -2.15136 0.0224346 0.00944615 0.0236154 0.0106269 0.0236154 0.0106269 0.0224346 0.00826538 0.0106269 0.00354231 0.0188923 0.00472308 0.0188923 0.00472308 0.00472308 0.00118077 0.0165308 0.00236154 0.0141692 0.00236154 0.01535 0.00118077 0.00236154 0 0.00118077 0 0.0247962 -0.00236154 0.01535 0 -0.00708462 0 0.0165308 -0.00354231 0.0165308 -0.00354231 0.00826538 -0.00236154 0.0200731 -0.00590385 0.0177115 -0.00590385 0.0129885 -0.00472308 0.0283385 -0.0141692 0.0271577 -0.0118077 0.0118077 -0.00590385 0.0259769 -0.01535 0.0307 -0.0188923 0.0307 -0.0212538 0.0295192 -0.0200731 0.0307 -0.0236154 0.0342423 -0.0271577 0.0377846 -0.0342423 0.0377846 -0.0330615 1.59404 1.73809 -0.0826538 0.0732077 -0.0802923 0.0673038 -0.0861962 0.0696654 -0.0897385 0.0684846 -0.0909192 0.0649423 -0.0897385 0.0590385 -0.0873769 0.0543154 -0.0944615 0.0554962 -0.108631 0.0578577 -0.0932808 0.0448692 -0.0921 0.0401462 -0.105088 0.0425077 -0.102727 0.0366038 -0.100365 0.0318808 -0.112173 0.0307 -0.103908 0.0224346 -0.103908 0.0200731 -0.127523 0.0165308 -0.105088 0.00944615 -0.0932808 0.00472308 -0.119258 0.00236154 -0.118077 -0.00472308 -0.105088 -0.00826538 -0.106269 -0.0118077 -0.103908 -0.0165308 -0.115715 -0.0224346 -0.101546 -0.0259769 -0.101546 -0.0283385 -0.109812 -0.0366038 -0.0980038 -0.0366038 -0.0968231 -0.0389654 -0.0968231 -0.0436885 0.0224346 0.00944615zm0.961146 -2.15136l0.0224346 0.00944615 0.0224346 0.0106269 -0.0448692 -0.0200731zm-4.29682 1.44408l0 -2.35682 0 0 0.144054 0.00118077 0.136969 0.00236154 0.142873 0.00354231 0.148777 0.00708462 0.141692 0.00944615 0.136969 0.0106269 0.136969 0.0118077 0.140512 0.0129885 0.141692 0.0165308 0.139331 0.0177115 0.140512 0.0200731 0.133427 0.0200731 0.13815 0.0236154 0.133427 0.0247962 0.139331 0.0259769 0.134608 0.0283385 0.133427 0.0295192 0.136969 0.0318808 0.128704 0.0330615 0.134608 0.0354231 0.129885 0.0354231 0.133427 0.0389654 0.134608 0.0425077 0.121619 0.0389654 0.129885 0.0425077 0.132246 0.04605 0.127523 0.04605 0.123981 0.0472308 0.128704 0.0507731 0.125162 0.0519538 0.121619 0.0507731 0.125162 0.0554962 -0.961146 2.15136 -0.0944615 -0.0413269 -0.0980038 -0.0413269 -0.0968231 -0.0401462 -0.0956423 -0.0366038 -0.100365 -0.0377846 -0.0991846 -0.0366038 -0.0968231 -0.0342423 -0.0991846 -0.0330615 -0.10745 -0.0342423 -0.0968231 -0.0307 -0.100365 -0.0271577 -0.103908 -0.0307 -0.101546 -0.0259769 -0.10745 -0.0259769 -0.0991846 -0.0247962 -0.10745 -0.0224346 -0.103908 -0.0236154 -0.101546 -0.0188923 -0.109812 -0.0200731 -0.105088 -0.0165308 -0.109812 -0.0177115 -0.105088 -0.01535 -0.106269 -0.0129885 -0.106269 -0.0118077 -0.10745 -0.0106269 -0.113354 -0.00944615 -0.113354 -0.00826538 -0.108631 -0.00708462 -0.103908 -0.00472308 -0.109812 -0.00354231 -0.115715 -0.00236154 -0.110992 -0.00118077 0 0zm-8.191 8.191l-2.35682 0 0 0 0.0129885 -0.540792 0.0413269 -0.536069 0.0661231 -0.526623 0.0932808 -0.5219 0.118077 -0.510092 0.142873 -0.500646 0.166488 -0.490019 0.188923 -0.479392 0.211358 -0.467585 0.232612 -0.454596 0.253865 -0.442788 0.275119 -0.427438 0.292831 -0.412088 0.312904 -0.3991 0.332977 -0.38375 0.348327 -0.364858 0.364858 -0.348327 0.38375 -0.332977 0.3991 -0.312904 0.412088 -0.292831 0.427438 -0.275119 0.442788 -0.253865 0.454596 -0.232612 0.467585 -0.211358 0.479392 -0.188923 0.490019 -0.166488 0.500646 -0.142873 0.510092 -0.118077 0.5219 -0.0932808 0.526623 -0.0661231 0.536069 -0.0413269 0.540792 -0.0129885 0 2.35682 -0.422715 0.0106269 -0.415631 0.0318808 -0.410908 0.0519538 -0.401462 0.0720269 -0.396738 0.0921 -0.387292 0.109812 -0.381388 0.128704 -0.370762 0.146415 -0.363677 0.164127 -0.35305 0.180658 -0.341242 0.197188 -0.332977 0.213719 -0.32235 0.229069 -0.309362 0.242058 -0.296373 0.257408 -0.284565 0.272758 -0.272758 0.284565 -0.257408 0.296373 -0.242058 0.309362 -0.229069 0.32235 -0.213719 0.332977 -0.197188 0.341242 -0.180658 0.35305 -0.164127 0.363677 -0.146415 0.370762 -0.128704 0.381388 -0.109812 0.387292 -0.0921 0.396738 -0.0720269 0.401462 -0.0519538 0.410908 -0.0318808 0.415631 -0.0106269 0.422715 0 0zm3.27191 6.55327l-1.26815 1.98605 -0.0649423 -0.0448692 -0.242058 -0.183019 -0.234973 -0.190104 -0.23025 -0.196008 -0.226708 -0.204273 -0.217262 -0.210177 -0.211358 -0.213719 -0.206635 -0.220804 -0.200731 -0.229069 -0.192465 -0.232612 -0.186562 -0.236154 -0.180658 -0.244419 -0.174754 -0.252685 -0.164127 -0.252685 -0.159404 -0.258588 -0.1535 -0.266854 -0.142873 -0.268035 -0.136969 -0.273938 -0.128704 -0.281023 -0.119258 -0.278662 -0.113354 -0.288108 -0.105088 -0.29165 -0.0968231 -0.295192 -0.0873769 -0.297554 -0.0791115 -0.301096 -0.0708462 -0.308181 -0.0614 -0.309362 -0.0519538 -0.309362 -0.0436885 -0.315265 -0.0330615 -0.319988 -0.0236154 -0.318808 -0.01535 -0.321169 -0.00472308 -0.325892 2.35682 0 0.00472308 0.252685 0.0106269 0.252685 0.0188923 0.250323 0.0259769 0.244419 0.0342423 0.244419 0.0401462 0.243238 0.0472308 0.238515 0.0543154 0.234973 0.0625808 0.234973 0.0684846 0.233792 0.0732077 0.226708 0.0814731 0.225527 0.0873769 0.221985 0.0956423 0.221985 0.0980038 0.2149 0.106269 0.210177 0.112173 0.211358 0.115715 0.203092 0.123981 0.201912 0.131065 0.200731 0.132246 0.191285 0.140512 0.187742 0.146415 0.188923 0.149958 0.180658 0.155862 0.177115 0.159404 0.171212 0.166488 0.16885 0.170031 0.162946 0.172392 0.157042 0.180658 0.1535 0.183019 0.147596 0.187742 0.142873 -0.0649423 -0.0448692zm-1.26815 1.98605l-0.0307 -0.0200731 -0.0342423 -0.0247962 0.0649423 0.0448692zm2.47843 0.981219l-2.27416 -0.618723 -0.0330615 0.167669 0.00472308 -0.0413269 0.00354231 -0.0318808 0.00118077 -0.0318808 0.00118077 -0.0413269 0.00118077 -0.0271577 -0.00118077 -0.0259769 0 -0.0247962 -0.00236154 -0.0247962 -0.00236154 -0.0212538 -0.00354231 -0.0224346 -0.00236154 -0.0177115 -0.00118077 -0.00826538 -0.00472308 -0.01535 -0.00472308 -0.0165308 -0.00236154 -0.00708462 -0.00472308 -0.0129885 -0.00472308 -0.0106269 -0.00236154 -0.00590385 -0.00354231 -0.00708462 -0.00118077 -0.00236154 -0.0106269 -0.0165308 -0.00826538 -0.0129885 0.00354231 0.00472308 -0.0106269 -0.0118077 -0.0118077 -0.0141692 -0.00118077 -0.00118077 -0.0106269 -0.00944615 -0.0177115 -0.0165308 -0.0212538 -0.0177115 -0.0106269 -0.00826538 -0.01535 -0.0106269 -0.0271577 -0.0188923 1.26815 -1.98605 0.0861962 0.0566769 0.0932808 0.0649423 0.0909192 0.0720269 0.0779308 0.0649423 0.0743885 0.0661231 0.0791115 0.0755692 0.0814731 0.0861962 0.0661231 0.0755692 0.0649423 0.0802923 0.0720269 0.0968231 0.0554962 0.0838346 0.0507731 0.0802923 0.0554962 0.0968231 0.0484115 0.0944615 0.0448692 0.0956423 0.0377846 0.0932808 0.0354231 0.0932808 0.0330615 0.101546 0.0259769 0.0921 0.0236154 0.0956423 0.0224346 0.105088 0.0165308 0.0956423 0.0129885 0.0956423 0.00944615 0.0944615 0.00708462 0.0956423 0.00472308 0.0956423 0.00118077 0.0944615 -0.00118077 0.0956423 -0.00354231 0.0838346 -0.00590385 0.0956423 -0.00826538 0.0956423 -0.00944615 0.0861962 -0.0330615 0.167669zm0.0330615 -0.167669l-0.0106269 0.0826538 -0.0224346 0.0850154 0.0330615 -0.167669zm-1.40866 10.5218l-2.35682 0 0 0 0.00118077 -0.356592 0.00472308 -0.354231 0.00708462 -0.35305 0.00944615 -0.354231 0.0141692 -0.354231 0.0165308 -0.350688 0.0188923 -0.351869 0.0224346 -0.349508 0.0247962 -0.348327 0.0271577 -0.349508 0.0307 -0.347146 0.0330615 -0.347146 0.0366038 -0.349508 0.0401462 -0.344785 0.0413269 -0.343604 0.0448692 -0.344785 0.0472308 -0.341242 0.0495923 -0.342423 0.0531346 -0.342423 0.0566769 -0.340062 0.0578577 -0.3377 0.0602192 -0.340062 0.0649423 -0.3377 0.0673038 -0.335338 0.0684846 -0.334158 0.0720269 -0.335338 0.0743885 -0.334158 0.0779308 -0.334158 0.0802923 -0.330615 0.0826538 -0.330615 0.0838346 -0.328254 0.0885577 -0.329435 2.27416 0.618723 -0.0814731 0.308181 -0.0814731 0.311723 -0.0779308 0.311723 -0.0755692 0.314085 -0.0732077 0.312904 -0.0696654 0.312904 -0.0673038 0.316446 -0.0661231 0.317627 -0.0625808 0.318808 -0.0602192 0.316446 -0.0578577 0.318808 -0.0554962 0.321169 -0.0519538 0.321169 -0.0507731 0.321169 -0.0472308 0.321169 -0.0448692 0.324712 -0.0425077 0.323531 -0.0389654 0.327073 -0.0377846 0.328254 -0.0342423 0.323531 -0.0307 0.325892 -0.0283385 0.330615 -0.0271577 0.328254 -0.0224346 0.331796 -0.0224346 0.330615 -0.0165308 0.330615 -0.0165308 0.334158 -0.0118077 0.330615 -0.00944615 0.332977 -0.00708462 0.336519 -0.00472308 0.335338 -0.00118077 0.335338 0 0zm1.39449 10.4557l-2.33556 0.321169 0.0295192 0.146415 -0.0873769 -0.325892 -0.0838346 -0.330615 -0.0814731 -0.328254 -0.0791115 -0.329435 -0.0755692 -0.330615 -0.0743885 -0.331796 -0.0720269 -0.334158 -0.0684846 -0.334158 -0.0661231 -0.334158 -0.0637615 -0.336519 -0.0602192 -0.335338 -0.0590385 -0.340062 -0.0543154 -0.340062 -0.0519538 -0.338881 -0.0495923 -0.338881 -0.0472308 -0.340062 -0.0448692 -0.343604 -0.0413269 -0.343604 -0.0389654 -0.342423 -0.0366038 -0.345965 -0.0330615 -0.345965 -0.0307 -0.345965 -0.0271577 -0.347146 -0.0247962 -0.349508 -0.0212538 -0.347146 -0.0200731 -0.350688 -0.01535 -0.350688 -0.0141692 -0.350688 -0.00944615 -0.35305 -0.00708462 -0.350688 -0.00472308 -0.35305 -0.00118077 -0.354231 2.35682 0 0.00118077 0.332977 0.00472308 0.334158 0.00708462 0.334158 0.00944615 0.331796 0.0118077 0.331796 0.01535 0.329435 0.0177115 0.329435 0.0212538 0.330615 0.0224346 0.328254 0.0271577 0.325892 0.0283385 0.329435 0.0307 0.324712 0.0342423 0.324712 0.0366038 0.325892 0.0389654 0.32235 0.0425077 0.32235 0.0448692 0.323531 0.0472308 0.32235 0.0495923 0.32235 0.0519538 0.318808 0.0543154 0.316446 0.0578577 0.318808 0.0590385 0.315265 0.0637615 0.317627 0.0637615 0.315265 0.0673038 0.312904 0.0696654 0.315265 0.0732077 0.311723 0.0743885 0.312904 0.07675 0.311723 0.0791115 0.307 0.0826538 0.309362 0.0295192 0.146415zm-0.0295192 -0.146415l0.0188923 0.0708462 0.0106269 0.0755692 -0.0295192 -0.146415z"/>
    <path id="_4532099841" class="fil5" d="M110.274 63.327c0.0991846,0.723812 -0.129885,1.25988 -0.657688,1.62592 -1.03317,0.748608 -1.92938,1.72274 -2.60832,2.89997 -2.58707,4.47984 -1.05088,10.2113 3.42895,12.7984 2.68035,1.54681 5.8082,1.61883 8.44368,0.467585 0.648242,-0.336519 1.23745,-0.198369 1.79241,0.218442 5.0289,5.06432 11.385,8.80972 18.5003,10.6742 0.608096,0.273938 1.00129,0.710823 1.03435,1.42165 0.319988,2.85628 1.94709,5.52954 4.62625,7.07753 4.48102,2.58588 10.2125,1.05088 12.7995,-3.43013 0.678942,-1.17605 1.0745,-2.43947 1.20557,-3.7088 0.0543154,-0.652965 0.417992,-1.12527 1.12173,-1.39803 6.97717,-1.85735 13.2199,-5.52246 18.1886,-10.4663l0.00236154 -0.00236154c0.638796,-0.585662 1.27523,-0.694292 1.91875,-0.390835 1.16542,0.520719 2.456,0.810008 3.81507,0.810008 5.17295,0 9.3694,-4.19527 9.3694,-9.3694 0,-3.0948 -1.50194,-5.84008 -3.81625,-7.5463 -0.652965,-0.416812 -0.81355,-1.04144 -0.693112,-1.78532l0 -0.00236154c0.896204,-3.35338 1.37678,-6.87562 1.37678,-10.51 0,-3.64267 -0.482935,-7.17317 -1.38268,-10.5313 -0.139331,-0.780488 0.0850154,-1.35434 0.639977,-1.73809 1.03317,-0.749788 1.92938,-1.72274 2.60832,-2.89997 2.58707,-4.47984 1.05088,-10.2113 -3.42895,-12.7984 -2.68035,-1.54681 -5.8082,-1.61883 -8.44368,-0.468765 -0.687208,0.356592 -1.30829,0.180658 -1.89159,-0.295192l-0.00472308 0.00354231c-4.9675,-4.9675 -11.2173,-8.6515 -18.2075,-10.5207l-0.00236154 0c-0.703738,-0.268035 -1.16424,-0.729715 -1.19848,-1.5043 -0.321169,-2.85628 -1.94709,-5.52954 -4.62743,-7.07753 -4.48102,-2.58588 -10.2125,-1.05088 -12.7984,3.43013 -0.680123,1.17605 -1.0745,2.43947 -1.20675,3.7088 -0.0590385,0.709642 -0.482935,1.20438 -1.30947,1.46415l-0.00944615 0.00590385c-6.9075,1.86562 -13.0558,5.48585 -17.9867,10.3837l-0.00236154 0.00236154c-0.638796,0.585662 -1.27995,0.704919 -1.92229,0.401462 -1.16542,-0.520719 -2.45718,-0.810008 -3.81625,-0.810008 -5.17295,0 -9.3694,4.19645 -9.3694,9.3694 0,3.0948 1.50194,5.84008 3.81625,7.5463 0.617542,0.394377 0.791115,0.975315 0.707281,1.66488 -0.923362,3.39825 -1.41692,6.97244 -1.41692,10.6635 0,3.67337 0.4912,7.23103 1.40512,10.6163z"/>
   </g>
   <g id="_453202256">
    <g>
     <path id="_453210368" class="fil6" d="M111.716 62.1557c-1.61883,-6.36317 -1.56098,-12.9401 0.0118077,-19.1285 0.190104,-0.619904 0.7061,-1.19848 1.61529,-1.01428 2.1124,0.393196 4.36885,0.0637615 6.37497,-1.09457 0.848973,-0.490019 1.59286,-1.09339 2.22103,-1.7806 0.298735,-0.329435 0.972954,-0.758054 1.8113,-0.273938l1.69322 0.978858c0.822996,0.513635 0.835985,1.33073 0.580938,1.86089 -3.168,6.77525 -3.3522,14.8234 0.0295192,21.9682 0.395558,0.916277 -0.101546,1.53854 -0.534888,1.8361l-1.64717 0.950519c-0.709642,0.415631 -1.39449,0.207815 -1.84554,-0.286927 -1.71093,-1.92229 -4.20354,-3.13376 -6.97953,-3.13376 -0.589204,0 -1.16542,0.0554962 -1.7251,0.159404 -0.477031,0.116896 -1.34253,-0.0743885 -1.60585,-1.04144z"/>
     <path id="_453211928" class="fil6" d="M127.3 62.5725c-2.90942,-6.46117 -2.75355,-13.6615 -0.0129885,-19.8027 0.342423,-0.717908 1.13118,-1.21029 2.00258,-0.707281l7.07281 4.0831c0.661231,0.381388 0.831262,1.11465 0.577396,1.78296 -1.13944,3.00624 -1.18785,6.40213 0.0295192,9.53589 0.237335,0.81355 0.0366038,1.37087 -0.618723,1.79005l-6.96063 4.01816c-0.501827,0.283385 -1.53736,0.386112 -2.08996,-0.700196z"/>
     <path id="_453213152" class="fil6" d="M138.391 56.7915c-1.01782,-2.69688 -0.978858,-5.60747 -0.0259769,-8.19926 0.257408,-0.717908 0.848973,-0.769862 1.35434,-0.507731l6.96654 4.0217c0.514815,0.328254 0.442788,0.8903 0.0212538,1.16896l-6.89805 3.98273c-0.497104,0.284565 -1.15952,0.213719 -1.4181,-0.466404z"/>
    </g>
    <g>
     <path id="_453212648" class="fil6" d="M122.318 24.7383c4.71363,-4.59673 10.4545,-7.84385 16.6181,-9.58076 0.634073,-0.145235 1.39449,0.0118077 1.69086,0.893842 0.717908,2.03092 2.13601,3.82687 4.14686,4.98757 0.851335,0.492381 1.74872,0.834804 2.66027,1.03672 0.435704,0.0932808 1.14535,0.465223 1.14535,1.43582l0 1.96126c-0.0342423,0.971773 -0.737981,1.39331 -1.326,1.437 -7.47191,0.645881 -14.5542,4.52117 -19.0635,11.0414 -0.596288,0.802923 -1.3874,0.682485 -1.86325,0.455777l-1.65072 -0.954062c-0.717908,-0.407365 -0.879673,-1.10756 -0.676581,-1.74636 0.811188,-2.4501 0.614,-5.22254 -0.776946,-7.63249 -0.296373,-0.512454 -0.632892,-0.985942 -1.00483,-1.41928 -0.340062,-0.355412 -0.608096,-1.2032 0.100365,-1.91639z"/>
     <path id="_453213584" class="fil6" d="M129.77 38.4813c4.15158,-5.76688 10.484,-9.2407 17.1908,-9.93972 0.795838,-0.0637615 1.61883,0.375485 1.61883,1.38386l0 8.18982c0,0.765138 -0.550238,1.28113 -1.2587,1.39567 -3.18217,0.517177 -6.15653,2.17852 -8.26657,4.80573 -0.588023,0.615181 -1.1725,0.720269 -1.86562,0.361315l-6.97953 -4.02997c-0.497104,-0.294012 -1.1052,-1.1418 -0.439246,-2.16671z"/>
     <path id="_453203432" class="fil6" d="M140.351 45.2152c1.83255,-2.23638 4.37947,-3.66157 7.10823,-4.13387 0.753331,-0.136969 1.09339,0.351869 1.12055,0.921l0 8.0682c-0.0271577,0.611638 -0.550238,0.830081 -1.00365,0.603373l-6.91813 -3.99454c-0.495923,-0.288108 -0.7675,-0.898565 -0.307,-1.46415z"/>
    </g>
    <g>
     <g>
      <path id="_453201176" class="fil6" d="M187.197 62.21c1.62356,-6.38088 1.5657,-12.9767 -0.0118077,-19.1828 -0.191285,-0.621085 -0.708462,-1.20084 -1.62002,-1.01664 -2.11712,0.394377 -4.38183,0.0637615 -6.39268,-1.09693 -0.851335,-0.492381 -1.59758,-1.09812 -2.22811,-1.7865 -0.298735,-0.330615 -0.974135,-0.759235 -1.81602,-0.273938l-1.69795 0.981219c-0.824177,0.514815 -0.838346,1.33427 -0.582119,1.8668 3.17627,6.79415 3.36165,14.8647 -0.0295192,22.0296 -0.396738,0.918638 0.102727,1.54327 0.53725,1.84082l1.65072 0.954062c0.712004,0.416812 1.39921,0.207815 1.85145,-0.288108 1.71566,-1.9282 4.21535,-3.14203 6.99842,-3.14203 0.590385,0 1.16896,0.0543154 1.73101,0.159404 0.478212,0.118077 1.34608,-0.0743885 1.60939,-1.04498z"/>
      <path id="_453201560" class="fil6" d="M171.569 62.628c2.91768,-6.47888 2.76064,-13.7005 0.0129885,-19.8582 -0.343604,-0.720269 -1.13472,-1.21383 -2.00849,-0.709642l-7.09288 4.09491c-0.662412,0.382569 -0.833623,1.11701 -0.578577,1.78768 1.14298,3.01568 1.1914,6.42102 -0.0295192,9.56305 -0.238515,0.815912 -0.0366038,1.37442 0.621085,1.79477l6.97953 4.02997c0.503008,0.283385 1.5409,0.386112 2.09587,-0.702558z"/>
      <path id="_453201608" class="fil6" d="M160.446 56.8316c1.02137,-2.70514 0.9824,-5.62282 0.0259769,-8.22288 -0.257408,-0.720269 -0.851335,-0.771042 -1.35788,-0.510092l-6.98661 4.03351c-0.515996,0.329435 -0.443969,0.892662 -0.0212538,1.1725l6.91813 3.99336c0.498285,0.285746 1.16188,0.2149 1.42165,-0.466404z"/>
     </g>
     <g>
      <path id="_453201752" class="fil6" d="M160.078 90.1411c6.33719,-1.78414 12.0214,-5.1328 16.6063,-9.60202 0.442788,-0.47585 0.687208,-1.21383 0.0708462,-1.91167 -1.40039,-1.63655 -2.24582,-3.76311 -2.24582,-6.08568 0,-0.983581 0.151138,-1.93174 0.432162,-2.82204 0.136969,-0.422715 0.171212,-1.22328 -0.670677,-1.70975l-1.69795 -0.980038c-0.858419,-0.455777 -1.57515,-0.0578577 -1.90812,0.4298 -4.29564,6.14827 -11.1925,10.3435 -19.093,10.9882 -0.994208,0.115715 -1.28468,0.860781 -1.326,1.38622l0 1.90576c-0.00590385,0.826538 0.519538,1.31656 1.17487,1.45943 2.52685,0.523081 4.82935,2.08052 6.22029,4.49047 0.296373,0.511273 0.53725,1.04026 0.727354,1.57869 0.136969,0.473488 0.737981,1.12763 1.70975,0.872588z"/>
      <path id="_453202136" class="fil6" d="M151.902 76.8149c7.06927,-0.712004 13.2447,-4.45858 17.2038,-9.91728 0.452235,-0.657688 0.484115,-1.58932 -0.389654,-2.09468l-7.09288 -4.09491c-0.662412,-0.382569 -1.38386,-0.162946 -1.83728,0.393196 -2.04037,2.49733 -4.96513,4.2425 -8.29608,4.75496 -0.826538,0.201912 -1.20911,0.655327 -1.24453,1.43582l0 8.05993c0.00590385,0.577396 0.435704,1.52792 1.65662,1.46297z"/>
      <path id="_453202184" class="fil6" d="M151.36 64.2846c2.85274,-0.468765 5.36187,-1.96126 7.13421,-4.089 0.494742,-0.5833 0.243238,-1.12291 -0.237335,-1.43109l-6.98661 -4.03351c-0.543154,-0.282204 -0.994208,0.0614 -1.02491,0.56795l0 7.9879c0.00236154,0.573854 0.394377,1.11347 1.11465,0.99775z"/>
     </g>
     <g>
      <path id="_453202424" class="fil6" d="M122.373 80.6135c4.70064,4.58375 10.4262,7.8226 16.5721,9.5536 0.631712,0.145235 1.39095,-0.0118077 1.68614,-0.891481 0.715546,-2.02502 2.12893,-3.81625 4.13505,-4.9734 0.848973,-0.4912 1.744,-0.832442 2.65319,-1.03435 0.433342,-0.0932808 1.1418,-0.462862 1.1418,-1.43109l0 -1.95535c-0.0342423,-0.969412 -0.735619,-1.38977 -1.32246,-1.43345 -7.45065,-0.6447 -14.514,-4.50818 -19.0092,-11.0107 -0.596288,-0.799381 -1.38386,-0.680123 -1.85853,-0.453415l-1.64599 0.950519c-0.715546,0.406185 -0.877312,1.10402 -0.6754,1.74163 0.810008,2.44301 0.612819,5.20719 -0.774585,7.61124 -0.295192,0.510092 -0.631712,0.9824 -1.00129,1.41456 -0.340062,0.354231 -0.606915,1.19966 0.0991846,1.91167z"/>
      <path id="_453202472" class="fil6" d="M129.804 66.9095c4.13978,5.74917 10.4545,9.21472 17.1424,9.91138 0.792296,0.0625808 1.61411,-0.374304 1.61411,-1.38032l0 -8.16738c0,-0.762777 -0.549058,-1.27641 -1.25516,-1.39095 -3.17391,-0.515996 -6.13882,-2.17262 -8.24413,-4.79274 -0.585662,-0.612819 -1.16778,-0.717908 -1.85971,-0.358954l-6.96063 4.01816c-0.494742,0.292831 -1.10166,1.13826 -0.436885,2.16081z"/>
      <path id="_453202712" class="fil6" d="M140.356 60.1933c1.82665,2.23047 4.36648,3.65212 7.08698,4.12207 0.750969,0.136969 1.09103,-0.349508 1.11819,-0.917458l0 -8.04458c-0.0271577,-0.610458 -0.549058,-0.8289 -1.00129,-0.603373l-6.89923 3.98392c-0.493562,0.286927 -0.765138,0.896204 -0.304638,1.45943z"/>
     </g>
    </g>
    <g>
     <path id="_453202904" class="fil6" d="M160.065 15.2178c6.33837,1.78414 12.0214,5.13162 16.6075,9.60083 0.442788,0.477031 0.686027,1.21501 0.0708462,1.91167 -1.40039,1.63773 -2.24582,3.76311 -2.24582,6.08568 0,0.983581 0.151138,1.93174 0.432162,2.82204 0.136969,0.423896 0.170031,1.22446 -0.670677,1.70975l-1.69795 0.980038c-0.8596,0.456958 -1.57515,0.0578577 -1.90812,-0.428619 -4.29564,-6.14827 -11.1925,-10.3447 -19.0942,-10.9894 -0.993027,-0.115715 -1.28468,-0.860781 -1.32482,-1.38622l0 -1.90576c-0.00590385,-0.825358 0.518358,-1.31656 1.17368,-1.45943 2.52803,-0.5219 4.82935,-2.07933 6.22147,-4.48928 0.295192,-0.512454 0.53725,-1.04144 0.726173,-1.57987 0.13815,-0.472308 0.737981,-1.12763 1.70975,-0.871408z"/>
     <path id="_453203288" class="fil6" d="M151.889 28.5427c7.07045,0.713185 13.2459,4.45858 17.205,9.91846 0.451054,0.656508 0.484115,1.58932 -0.389654,2.0935l-7.09288 4.09491c-0.662412,0.382569 -1.38504,0.162946 -1.83728,-0.393196 -2.04037,-2.49615 -4.96513,-4.24132 -8.29608,-4.75496 -0.826538,-0.201912 -1.20911,-0.655327 -1.24453,-1.43582l0 -8.05993c0.00590385,-0.577396 0.435704,-1.52673 1.65544,-1.46297z"/>
     <path id="_453203192" class="fil6" d="M151.349 41.0731c2.85274,0.468765 5.36069,1.96126 7.13421,4.089 0.494742,0.5833 0.243238,1.12291 -0.237335,1.43109l-6.98661 4.03351c-0.543154,0.282204 -0.994208,-0.0614 -1.02491,-0.566769l0 -7.98908c0.00118077,-0.573854 0.394377,-1.11347 1.11465,-0.99775z"/>
    </g>
   </g>
   <g id="_453216512">
    <path id="_453203624" class="fil7" d="M122.925 32.8159c0,-4.28383 -3.47382,-7.75765 -7.75765,-7.75765 -4.28383,0 -7.75765,3.47382 -7.75765,7.75765 0,4.28383 3.47382,7.75765 7.75765,7.75765 4.28383,0 7.75765,-3.47382 7.75765,-7.75765z"/>
    <path id="_453217280" class="fil7" d="M176.107 32.8159c0,-4.28383 3.47382,-7.75765 7.75765,-7.75765 4.28383,0 7.75765,3.47382 7.75765,7.75765 0,4.28383 -3.47382,7.75765 -7.75765,7.75765 -4.28383,0 -7.75765,-3.47382 -7.75765,-7.75765z"/>
    <path id="_453215408" class="fil7" d="M107.41 72.4792c0,-4.28501 3.47382,-7.75883 7.75765,-7.75883 4.28383,0 7.75765,3.47382 7.75765,7.75883 0,4.28265 -3.47382,7.75765 -7.75765,7.75765 -4.28383,0 -7.75765,-3.475 -7.75765,-7.75765z"/>
    <path id="_453216416" class="fil7" d="M145.637 19.7035c-3.70998,-2.1431 -4.98167,-6.88861 -2.83975,-10.5974 2.14192,-3.70998 6.88743,-4.98167 10.5974,-2.83975 3.70998,2.14192 4.98167,6.88743 2.83975,10.5974 -2.14192,3.70998 -6.88743,4.98167 -10.5974,2.83975z"/>
    <path id="_453215048" class="fil7" d="M145.637 99.0288c-3.70998,-2.14192 -4.98167,-6.88743 -2.83975,-10.5974 2.14192,-3.70998 6.88743,-4.98167 10.5974,-2.83975 3.70998,2.14192 4.98167,6.88743 2.83975,10.5974 -2.14192,3.70998 -6.88743,4.98167 -10.5974,2.83975z"/>
    <path id="_453216272" class="fil7" d="M191.622 72.4792c0,-4.28501 -3.47382,-7.75883 -7.75765,-7.75883 -4.28383,0 -7.75765,3.47382 -7.75765,7.75883 0,4.28265 3.47382,7.75765 7.75765,7.75765 4.28383,0 7.75765,-3.475 7.75765,-7.75765z"/>
   </g>
   <g id="_453213920">
    <path id="_453215480" class="fil8" d="M216.096 35.9037c3.11133,0 5.61338,0.946977 7.50733,2.84093 1.89513,1.89395 2.84211,4.39718 2.84211,7.50851 0,2.67208 -0.769862,4.96277 -2.3084,6.87444 -1.53972,1.91048 -3.39117,2.86573 -5.55552,2.86573 0.608096,0.474669 1.1666,1.03199 1.67433,1.67433 0.50655,0.643519 1.42047,2.03801 2.73938,4.18583 1.31892,2.14782 2.41822,3.98273 3.29789,5.50475 0.878492,1.52201 1.62238,2.79016 2.23165,3.80444l-8.37047 0 -3.29789 -5.78341c-1.85971,-3.34748 -3.14557,-5.55552 -3.85521,-6.62057 -0.710823,-1.06505 -1.31065,-1.70739 -1.80185,-1.9282 -0.490019,-0.219623 -0.921,-0.345965 -1.29294,-0.380208l0 14.7124 -6.95119 0 0 -35.259 13.1408 0zm-6.18959 15.2201l2.38397 0c1.52201,0 2.66382,-0.0850154 3.42423,-0.253865 0.761596,-0.16885 1.49722,-0.575035 2.20686,-1.21737 0.710823,-0.643519 1.06623,-1.7251 1.06623,-3.24712 0,-2.2659 -0.651785,-3.63559 -1.95417,-4.11026 -1.30239,-0.472308 -2.83267,-0.709642 -4.59083,-0.709642l-2.53629 0 0 9.53825z"/>
    <path id="_453214280" class="fil8" d="M283.182 35.8659l6.7481 14.1031c0.878492,1.86089 1.64009,3.61906 2.28243,5.27686 0.643519,1.65662 1.16778,3.2294 1.57278,4.71835 -0.101546,-1.08277 -0.219623,-2.72285 -0.354231,-4.92145 -0.135788,-2.19859 -0.203092,-3.78791 -0.203092,-4.76913l-0.152319 -14.4077 6.74692 0 0 35.259 -7.40697 0 -6.03727 -13.495c-1.52201,-3.38172 -2.63784,-5.95226 -3.34866,-7.7116 -0.709642,-1.75817 -1.18313,-3.04402 -1.42047,-3.85521 0.101546,1.08277 0.186562,2.68861 0.253865,4.8199 0.0673038,2.13011 0.101546,3.85521 0.101546,5.17413l0.203092 15.0678 -6.84846 0 0 -35.259 7.86274 0z"/>
    <path id="_453214352" class="fil8" d="M262.146 35.7891l11.111 35.3605 -7.61006 0 -2.48552 -8.37165 -10.3494 0 -2.4867 8.37165 -7.40697 0 9.65987 -29.5287c1.27051,-3.95203 4.6971,-5.89558 9.56777,-5.83182zm-0.709642 21.1051c-0.135788,-0.541973 -0.41445,-1.52319 -0.837165,-2.94366 -0.422715,-1.42047 -0.786392,-2.80669 -1.09103,-4.15985l-1.42047 -6.23918 -1.67433 6.79769c-0.304638,1.18313 -0.625808,2.36744 -0.963508,3.55057 -0.338881,1.18431 -0.642338,2.18206 -0.913915,2.99443l6.90042 0z"/>
    <polygon id="_453213968" class="fil8" points="239.71,35.8918 239.71,71.152 232.303,71.152 232.303,35.8918 "/>
   </g>
  </g>
 </g>
</svg>
