<?xml version="1.0" encoding="UTF-8"?>
<!DOCTYPE svg PUBLIC "-//W3C//DTD SVG 1.1//EN" "http://www.w3.org/Graphics/SVG/1.1/DTD/svg11.dtd">
<!-- Creator: CorelDRAW -->
<svg xmlns="http://www.w3.org/2000/svg" xml:space="preserve" width="614px" height="213px" style="shape-rendering:geometricPrecision; text-rendering:geometricPrecision; image-rendering:optimizeQuality; fill-rule:evenodd; clip-rule:evenodd"
viewBox="0 0 614 212.538"
 xmlns:xlink="http://www.w3.org/1999/xlink">
 <defs>
  <style type="text/css">
   <![CDATA[
    .str0 {stroke:#373435;stroke-width:4.71481}
    .fil4 {fill:none}
    .fil2 {fill:#0098DA}
    .fil1 {fill:#BDBFC1}
    .fil3 {fill:#ED3237}
    .fil5 {fill:#FEFEFE}
    .fil0 {fill:white}
    .fil6 {fill:#1378BD}
    .fil7 {fill:#76A852}
    .fil8 {fill:#FEFEFE;fill-rule:nonzero}
   ]]>
  </style>
 </defs>
 <g id="Capa_x0020_1">
  <metadata id="CorelCorpID_0Corel-Layer"/>
  <g id="_467776896">
   <g>
    <rect id="_462202000" class="fil0" x="13.8239" y="25.8107" width="161.539" height="137.639"/>
    <path id="_467775648" class="fil1" d="M9.4804 19.9916l172.248 0 0 172.248 -172.248 0 0 -172.248zm9.08838 9.08838l154.016 0 0 130.418 -154.016 0 0 -130.418z"/>
    <rect id="_467775288" class="fil2" x="27.0012" y="120.046" width="137.753" height="11.1878"/>
    <rect id="_467777088" class="fil2" x="27.0012" y="142.385" width="137.753" height="11.1878"/>
    <rect id="_467776728" class="fil3" x="29.6293" y="38.0125" width="12.7015" height="76.7063"/>
    <polygon id="_467777448" class="fil3" points="51.0919,114.727 63.5207,114.727 63.5207,75.2516 74.5797,114.727 88.0488,114.727 88.0488,38.0208 75.4016,38.0208 75.4016,76.4017 63.5207,38.0208 51.0919,38.0208 "/>
    <polygon id="_467777112" class="fil3" points="93.3918,63.8548 101.386,63.8548 101.386,114.719 114.909,114.719 114.909,63.3081 122.629,63.3081 122.629,38.0125 93.3918,38.0125 "/>
    <path id="_467778888" class="fil3" d="M137.443 87.2577l5.80348 0 -2.73702 -25.0217 -3.06646 25.0217zm-17.3561 27.4859l12.9767 -76.7075 15.9876 0 12.9755 76.7075 -14.6179 0 -2.24582 -9.96569 -9.08838 0 -1.64245 9.96569 -14.3452 0z"/>
   </g>
   <g>
    <g>
     <path id="_467779968" class="fil4 str0" d="M222.372 125.768c0.197188,1.44644 -0.258588,2.51976 -1.3142,3.25184 -2.06753,1.4984 -3.85993,3.44548 -5.21782,5.79876 -5.17413,8.96086 -2.10295,20.4238 6.85791,25.5967 5.36069,3.0948 11.6164,3.23885 16.8862,0.937531 1.29767,-0.673038 2.47607,-0.396738 3.58482,0.435704 10.059,10.1298 22.77,17.6194 37.0018,21.3495 1.21737,0.546696 2.00377,1.42047 2.06753,2.84093 0.641158,5.71492 3.89418,11.0603 9.25487,14.1551 8.96086,5.17413 20.4238,2.10177 25.5967,-6.85791 1.35907,-2.35327 2.149,-4.88012 2.41349,-7.41877 0.10745,-1.30593 0.834804,-2.24937 2.2411,-2.79724 13.9567,-3.71234 26.4398,-11.0437 36.3783,-20.9327l0.00590385 -0.00354231c1.27759,-1.17132 2.5481,-1.38858 3.83514,-0.781669 2.33084,1.04144 4.91436,1.62002 7.63131,1.62002 10.3471,0 18.7388,-8.39173 18.7376,-18.7388 0,-6.18959 -3.0027,-11.6802 -7.63131,-15.0926 -1.30475,-0.834804 -1.62828,-2.08406 -1.3874,-3.56947l0.00118077 -0.00708462c1.79123,-6.70441 2.75237,-13.7501 2.75237,-21.0189 0,-7.28535 -0.964688,-14.3452 -2.76418,-21.0637 -0.277481,-1.5598 0.16885,-2.70632 1.27877,-3.47618 2.06753,-1.49722 3.85993,-3.44548 5.21782,-5.79758 5.17413,-8.96086 2.10295,-20.4238 -6.85791,-25.5979 -5.36069,-3.0948 -11.6176,-3.23885 -16.8862,-0.93635 -1.3756,0.713185 -2.61777,0.360135 -3.78437,-0.592746l-0.00944615 0.00708462c-9.93499,-9.93381 -22.4346,-17.3018 -36.4149,-21.0401l-0.00472308 -0.00118077c-1.40866,-0.533708 -2.3273,-1.45825 -2.39814,-3.00624 -0.641158,-5.71374 -3.89418,-11.0603 -9.25487,-14.1551 -8.95968,-5.17413 -20.4226,-2.10177 -25.5967,6.85909 -1.35788,2.35209 -2.149,4.87894 -2.41231,7.41759 -0.118077,1.4181 -0.965869,2.40877 -2.61895,2.92949l-0.0188923 0.0118077c-13.8162,3.73005 -26.1127,10.9717 -35.9733,20.7662l-0.00472308 0.00354231c-1.27759,1.17132 -2.55873,1.4122 -3.84577,0.804104 -2.33084,-1.04026 -4.91436,-1.62002 -7.63131,-1.61883 -10.3459,0 -18.7376,8.39055 -18.7376,18.7376 0,6.18959 3.0027,11.6802 7.63131,15.0926 1.2339,0.788754 1.58223,1.94945 1.41338,3.32977 -1.84554,6.79651 -2.83385,13.9461 -2.83385,21.3271 0,7.34557 0.9824,14.4632 2.81141,21.2326z"/>
     <path id="_4677799681" class="fil5" d="M222.372 125.768c0.197188,1.44644 -0.258588,2.51976 -1.3142,3.25184 -2.06753,1.4984 -3.85993,3.44548 -5.21782,5.79876 -5.17413,8.96086 -2.10295,20.4238 6.85791,25.5967 5.36069,3.0948 11.6164,3.23885 16.8862,0.937531 1.29767,-0.673038 2.47607,-0.396738 3.58482,0.435704 10.059,10.1298 22.77,17.6194 37.0018,21.3495 1.21737,0.546696 2.00377,1.42047 2.06753,2.84093 0.641158,5.71492 3.89418,11.0603 9.25487,14.1551 8.96086,5.17413 20.4238,2.10177 25.5967,-6.85791 1.35907,-2.35327 2.149,-4.88012 2.41349,-7.41877 0.10745,-1.30593 0.834804,-2.24937 2.2411,-2.79724 13.9567,-3.71234 26.4398,-11.0437 36.3783,-20.9327l0.00590385 -0.00354231c1.27759,-1.17132 2.5481,-1.38858 3.83514,-0.781669 2.33084,1.04144 4.91436,1.62002 7.63131,1.62002 10.3471,0 18.7388,-8.39173 18.7376,-18.7388 0,-6.18959 -3.0027,-11.6802 -7.63131,-15.0926 -1.30475,-0.834804 -1.62828,-2.08406 -1.3874,-3.56947l0.00118077 -0.00708462c1.79123,-6.70441 2.75237,-13.7501 2.75237,-21.0189 0,-7.28535 -0.964688,-14.3452 -2.76418,-21.0637 -0.277481,-1.5598 0.16885,-2.70632 1.27877,-3.47618 2.06753,-1.49722 3.85993,-3.44548 5.21782,-5.79758 5.17413,-8.96086 2.10295,-20.4238 -6.85791,-25.5979 -5.36069,-3.0948 -11.6176,-3.23885 -16.8862,-0.93635 -1.3756,0.713185 -2.61777,0.360135 -3.78437,-0.592746l-0.00944615 0.00708462c-9.93499,-9.93381 -22.4346,-17.3018 -36.4149,-21.0401l-0.00472308 -0.00118077c-1.40866,-0.533708 -2.3273,-1.45825 -2.39814,-3.00624 -0.641158,-5.71374 -3.89418,-11.0603 -9.25487,-14.1551 -8.95968,-5.17413 -20.4226,-2.10177 -25.5967,6.85909 -1.35788,2.35209 -2.149,4.87894 -2.41231,7.41759 -0.118077,1.4181 -0.965869,2.40877 -2.61895,2.92949l-0.0188923 0.0118077c-13.8162,3.73005 -26.1127,10.9717 -35.9733,20.7662l-0.00472308 0.00354231c-1.27759,1.17132 -2.55873,1.4122 -3.84577,0.804104 -2.33084,-1.04026 -4.91436,-1.62002 -7.63131,-1.61883 -10.3459,0 -18.7376,8.39055 -18.7376,18.7376 0,6.18959 3.0027,11.6802 7.63131,15.0926 1.2339,0.788754 1.58223,1.94945 1.41338,3.32977 -1.84554,6.79651 -2.83385,13.9461 -2.83385,21.3271 0,7.34557 0.9824,14.4632 2.81141,21.2326z"/>
    </g>
    <g>
     <g>
      <path id="_467780064" class="fil6" d="M225.255 123.426c-3.23885,-12.7263 -3.12313,-25.8801 0.0236154,-38.2569 0.381388,-1.23981 1.4122,-2.39696 3.23058,-2.02974 4.22361,0.786392 8.73887,0.128704 12.7499,-2.18797 1.69913,-0.981219 3.18572,-2.18797 4.44323,-3.5612 0.595108,-0.658869 1.94473,-1.51493 3.62142,-0.546696l3.38763 1.95535c1.64363,1.02845 1.67079,2.66382 1.1607,3.72415 -6.33601,13.5493 -6.70559,29.6456 0.0602192,43.9352 0.789935,1.83137 -0.205454,3.07708 -1.07214,3.67219l-3.29198 1.90104c-1.42165,0.832442 -2.79134,0.415631 -3.69227,-0.573854 -3.42187,-3.84458 -8.40708,-6.26752 -13.9579,-6.26752 -1.17959,0 -2.3332,0.109812 -3.45257,0.319988 -0.952881,0.233792 -2.68389,-0.149958 -3.21051,-2.08406z"/>
      <path id="_467781912" class="fil6" d="M256.423 124.258c-5.81883,-12.9212 -5.50593,-27.323 -0.0259769,-39.6042 0.684846,-1.43582 2.26235,-2.42058 4.00517,-1.41456l14.1468 8.16738c1.3201,0.761596 1.66134,2.22693 1.15243,3.56474 -2.2777,6.01248 -2.37571,12.8054 0.0590385,19.0706 0.47585,1.62828 0.0743885,2.74175 -1.23745,3.58127l-13.9213 8.0375c-1.00247,0.564408 -3.07236,0.769862 -4.17874,-1.40275z"/>
      <path id="_467780928" class="fil6" d="M278.606 112.699c-2.03683,-5.39375 -1.9589,-11.2149 -0.0531346,-16.3985 0.514815,-1.43818 1.69795,-1.53972 2.70868,-1.01782l13.9343 8.04458c1.02963,0.656508 0.884396,1.77942 0.0425077,2.33674l-13.7985 7.96665c-0.993027,0.56795 -2.31667,0.428619 -2.83385,-0.931627z"/>
     </g>
     <g>
      <path id="_467769744" class="fil6" d="M246.458 48.591c9.42844,-9.19347 20.9114,-15.6889 33.2375,-19.1627 1.26697,-0.290469 2.79016,0.0259769 3.38172,1.78887 1.43582,4.06303 4.27084,7.65375 8.29372,9.97632 1.70385,0.983581 3.49744,1.66843 5.32055,2.07225 0.870227,0.186562 2.29069,0.929265 2.29069,2.87163l0 3.92252c-0.0684846,1.94355 -1.47478,2.78662 -2.65201,2.87517 -14.9438,1.29176 -29.1083,9.04115 -38.127,22.0816 -1.19376,1.60467 -2.77363,1.36497 -3.72533,0.910373l-3.30261 -1.90576c-1.43463,-0.817092 -1.75935,-2.21512 -1.35316,-3.4939 1.62356,-4.90019 1.228,-10.4439 -1.55507,-15.265 -0.591565,-1.02373 -1.26578,-1.9707 -2.00849,-2.83739 -0.681304,-0.710823 -1.21619,-2.40641 0.19955,-3.83396z"/>
      <path id="_467769960" class="fil6" d="M261.363 76.077c8.30435,-11.5326 20.9681,-18.4826 34.3828,-19.8806 1.58932,-0.125162 3.23649,0.750969 3.23649,2.7689l0 16.3808c0,1.5291 -1.10166,2.55991 -2.5174,2.78898 -6.36435,1.03672 -12.3131,4.35822 -16.5331,9.61382 -1.17487,1.22918 -2.34383,1.43936 -3.73123,0.720269l-13.9602 -8.05993c-0.993027,-0.586842 -2.20922,-2.28243 -0.877312,-4.33224z"/>
      <path id="_467769864" class="fil6" d="M282.526 89.5448c3.66275,-4.47275 8.75658,-7.32431 14.2153,-8.26657 1.50548,-0.275119 2.18797,0.701377 2.2411,1.842l0 16.134c-0.0531346,1.22328 -1.10166,1.66134 -2.00731,1.20911l-13.8374 -7.98908c-0.990665,-0.577396 -1.53382,-1.79831 -0.611638,-2.92949z"/>
     </g>
     <g>
      <g>
       <path id="_467770512" class="fil6" d="M376.217 123.536c3.2483,-12.7618 3.1314,-25.9545 -0.0224346,-38.3656 -0.382569,-1.24335 -1.41692,-2.40405 -3.24003,-2.03447 -4.2366,0.787573 -8.76367,0.127523 -12.7865,-2.19505 -1.70385,-0.983581 -3.19398,-2.19387 -4.45504,-3.57183 -0.597469,-0.66005 -1.95063,-1.51847 -3.63205,-0.547877l-3.39707 1.96126c-1.64953,1.03199 -1.67551,2.6709 -1.16424,3.73477 6.35372,13.5871 6.72448,29.7294 -0.0602192,44.0592 -0.793477,1.8361 0.205454,3.08535 1.0745,3.68282l3.30143 1.90576c1.42519,0.834804 2.79842,0.416812 3.70289,-0.575035 3.43132,-3.85521 8.43069,-6.28523 13.9968,-6.28523 1.18313,0 2.34028,0.109812 3.46202,0.319988 0.956423,0.234973 2.69215,-0.149958 3.21996,-2.08878z"/>
       <path id="_467770584" class="fil6" d="M344.962 124.37c5.83536,-12.9578 5.52128,-27.3997 0.0247962,-39.7164 -0.686027,-1.43936 -2.26826,-2.42766 -4.0158,-1.41928l-14.1858 8.191c-1.32482,0.763958 -1.66725,2.23402 -1.15715,3.57537 2.28479,6.02901 2.38279,12.8409 -0.0590385,19.1237 -0.477031,1.633 -0.0743885,2.75001 1.24099,3.5919l13.9614 8.05993c1.00483,0.566769 3.08063,0.772223 4.19055,-1.4063z"/>
       <path id="_467771136" class="fil6" d="M322.716 112.778c2.04273,-5.4091 1.9648,-11.2468 0.0519538,-16.4446 -0.514815,-1.44172 -1.70149,-1.54445 -2.71577,-1.02018l-13.9732 8.06702c-1.03199,0.657688 -0.887938,1.78414 -0.0425077,2.34265l13.8374 7.98908c0.995388,0.570312 2.32375,0.4298 2.84211,-0.933988z"/>
      </g>
      <g>
       <path id="_467771448" class="fil6" d="M321.978 179.395c12.6767,-3.56828 24.0428,-10.2644 33.2139,-19.2029 0.885577,-0.952881 1.37323,-2.42884 0.142873,-3.82333 -2.80078,-3.27427 -4.49283,-7.52504 -4.49283,-12.1702 0,-1.96716 0.302277,-3.86348 0.865504,-5.64408 0.272758,-0.847792 0.340062,-2.44892 -1.34135,-3.41951l-3.39707 -1.96126c-1.71802,-0.912735 -3.15029,-0.115715 -3.81625,0.858419 -8.5901,12.2965 -22.385,20.6883 -38.1873,21.9788 -1.98605,0.23025 -2.56935,1.72038 -2.65083,2.77127l0 3.8127c-0.0106269,1.65072 1.0379,2.63193 2.34855,2.91886 5.05487,1.0438 9.65869,4.15867 12.4418,8.97857 0.591565,1.02491 1.0745,2.0817 1.45353,3.15856 0.275119,0.945796 1.47596,2.25645 3.41951,1.744z"/>
       <path id="_467771496" class="fil6" d="M305.628 152.744c14.1397,-1.42519 26.4894,-8.91717 34.4076,-19.8357 0.903288,-1.3142 0.968231,-3.17863 -0.779308,-4.18701l-14.1858 -8.191c-1.32482,-0.763958 -2.7689,-0.325892 -3.67455,0.786392 -4.07956,4.99347 -9.93027,8.48383 -16.5922,9.5111 -1.6519,0.402642 -2.41822,1.31065 -2.48906,2.87045l0 16.1199c0.0118077,1.15479 0.871408,3.05465 3.31324,2.92595z"/>
       <path id="_467772168" class="fil6" d="M304.545 127.684c5.70548,-0.93635 10.7214,-3.92252 14.2672,-8.17801 0.990665,-1.1666 0.486477,-2.24582 -0.474669,-2.86218l-13.9732 -8.06702c-1.08631,-0.565588 -1.98842,0.123981 -2.04982,1.13472l0 15.9782c0.00354231,1.14653 0.789935,2.22693 2.23047,1.99432z"/>
      </g>
      <g>
       <path id="_467772672" class="fil6" d="M246.568 160.34c9.40128,9.16867 20.8524,15.6452 33.143,19.1096 1.2646,0.289288 2.78189,-0.0259769 3.37346,-1.78414 1.43109,-4.05122 4.25785,-7.63131 8.27011,-9.94798 1.69795,-0.980038 3.48681,-1.6637 5.3052,-2.06635 0.867865,-0.186562 2.28479,-0.926904 2.28479,-2.86337l0 -3.91189c-0.0684846,-1.93764 -1.47124,-2.77835 -2.64492,-2.86691 -14.9025,-1.28704 -29.0268,-9.01635 -38.0196,-22.019 -1.19022,-1.60112 -2.76654,-1.36143 -3.71588,-0.908012l-3.29198 1.89986c-1.43109,0.814731 -1.75462,2.20922 -1.34962,3.48445 1.61883,4.88602 1.22446,10.4144 -1.55153,15.2225 -0.589204,1.02018 -1.26106,1.9648 -2.0014,2.82912 -0.680123,0.708462 -1.21383,2.39932 0.198369,3.82215z"/>
       <path id="_467772576" class="fil6" d="M261.431 132.932c8.28073,11.5007 20.9091,18.4306 34.286,19.8251 1.58577,0.125162 3.22822,-0.749788 3.22822,-2.76182l0 -16.3348c0,-1.52437 -1.09812,-2.55282 -2.5115,-2.78071 -6.34663,-1.03317 -12.2776,-4.34523 -16.4859,-9.58667 -1.17132,-1.22564 -2.33792,-1.43463 -3.7206,-0.717908l-13.9213 8.0375c-0.990665,0.585662 -2.20332,2.27534 -0.87495,4.31925z"/>
       <path id="_467772408" class="fil6" d="M282.533 119.502c3.6533,4.45977 8.73297,7.30306 14.1763,8.24413 1.50194,0.273938 2.18088,-0.700196 2.2352,-1.83728l0 -16.0892c-0.0543154,-1.21973 -1.09812,-1.65544 -2.00258,-1.20438l-13.7985 7.96547c-0.988304,0.576215 -1.5291,1.79359 -0.610458,2.92122z"/>
      </g>
     </g>
     <g>
      <path id="_467773248" class="fil6" d="M321.954 29.5488c12.6756,3.56828 24.0416,10.2656 33.2139,19.204 0.884396,0.9517 1.37323,2.42766 0.141692,3.82333 -2.80078,3.27309 -4.49283,7.52504 -4.49283,12.1702 0,1.96716 0.303458,3.86348 0.865504,5.64408 0.273938,0.846612 0.341242,2.44773 -1.34135,3.41951l-3.39707 1.96126c-1.71802,0.911554 -3.15029,0.115715 -3.81507,-0.8596 -8.59128,-12.2965 -22.385,-20.6883 -38.1873,-21.9777 -1.98723,-0.231431 -2.56935,-1.72038 -2.65201,-2.77127l0 -3.8127c-0.0106269,-1.6519 1.03908,-2.63193 2.34973,-2.91886 5.05487,-1.04498 9.65869,-4.15985 12.4418,-8.97975 0.591565,-1.02373 1.0745,-2.0817 1.45353,-3.15856 0.275119,-0.945796 1.47596,-2.25527 3.41951,-1.744z"/>
      <path id="_467773320" class="fil6" d="M305.603 56.1999c14.1397,1.42519 26.4906,8.91835 34.4088,19.8357 0.903288,1.3142 0.968231,3.17863 -0.779308,4.18819l-14.1869 8.18982c-1.32364,0.765138 -2.76772,0.327073 -3.67455,-0.785212 -4.07956,-4.99465 -9.92909,-8.48501 -16.5922,-9.5111 -1.6519,-0.403823 -2.41822,-1.31065 -2.48906,-2.87045l0 -16.121c0.0118077,-1.15361 0.872588,-3.05465 3.31324,-2.92595z"/>
      <path id="_467773680" class="fil6" d="M304.52 81.2617c5.70548,0.93635 10.7214,3.92133 14.2672,8.17683 0.990665,1.16778 0.486477,2.24582 -0.474669,2.86218l-13.972 8.06702c-1.08631,0.565588 -1.9896,-0.1228 -2.051,-1.13472l0 -15.977c0.00472308,-1.14771 0.789935,-2.22693 2.23047,-1.99432z"/>
     </g>
    </g>
    <g>
     <path id="_467774352" class="fil7" d="M247.673 64.7463c0,-8.56766 -6.94883,-15.5153 -15.5153,-15.5153 -8.56766,0 -15.5165,6.94765 -15.5165,15.5153 0,8.56766 6.94883,15.5153 15.5165,15.5153 8.56648,0 15.5153,-6.94765 15.5153,-15.5153z"/>
     <path id="_467774256" class="fil7" d="M354.037 64.7463c0,-8.56766 6.94883,-15.5153 15.5165,-15.5153 8.56766,0 15.5153,6.94765 15.5153,15.5153 0,8.56766 -6.94765,15.5153 -15.5153,15.5153 -8.56766,0 -15.5165,-6.94765 -15.5165,-15.5153z"/>
     <path id="_467774424" class="fil7" d="M216.642 144.072c0,-8.56766 6.94883,-15.5153 15.5165,-15.5153 8.56648,0 15.5153,6.94765 15.5153,15.5153 0,8.56766 -6.94883,15.5153 -15.5153,15.5153 -8.56766,0 -15.5165,-6.94765 -15.5165,-15.5153z"/>
     <path id="_467774472" class="fil7" d="M293.098 38.5202c-7.41995,-4.28383 -9.96215,-13.7749 -5.6795,-21.1948 4.28383,-7.41995 13.776,-9.96215 21.1948,-5.67832 7.41995,4.28265 9.96333,13.7737 5.6795,21.1948 -4.28383,7.41877 -13.7749,9.96215 -21.1948,5.67832z"/>
     <path id="_467774832" class="fil7" d="M293.098 197.171c-7.41995,-4.28383 -9.96215,-13.7749 -5.6795,-21.1948 4.28383,-7.41995 13.776,-9.96215 21.1948,-5.67832 7.41995,4.28383 9.96333,13.7749 5.6795,21.1948 -4.28383,7.41995 -13.7749,9.96215 -21.1948,5.67832z"/>
     <path id="_467774976" class="fil7" d="M385.069 144.072c0,-8.56766 -6.94765,-15.5153 -15.5153,-15.5153 -8.56766,0 -15.5165,6.94765 -15.5165,15.5153 0,8.56766 6.94883,15.5153 15.5165,15.5153 8.56766,0 15.5153,-6.94765 15.5153,-15.5153z"/>
    </g>
    <path id="_467775456" class="fil8" d="M416.326 166.869l-1.0804 -3.51987 -4.33342 0 -1.07332 3.52342 -2.31077 -0.00354231 4.3901 -13.4053 2.5729 0 4.27557 13.4053 -2.44065 0zm-3.16918 -11.0839c-0.180658,0.657688 -0.461681,1.63418 -0.841888,2.93067 -0.380208,1.29648 -0.667135,2.22103 -0.860781,2.77599l3.28962 0c-0.0389654,-0.0909192 -0.307,-1.02255 -0.802923,-2.79488 -0.497104,-1.77352 -0.758054,-2.74411 -0.784031,-2.91178zm15.0029 2.86337c-0.271577,0 -0.452235,-0.0106269 -0.541973,-0.0295192 -0.0909192,-0.0188923 -0.161765,-0.0484115 -0.213719,-0.0873769 0.142873,0.180658 0.284565,0.406185 0.426258,0.676581 0.141692,0.271577 0.212538,0.619904 0.212538,1.04498 0,0.864323 -0.3377,1.57987 -1.01546,2.14782 -0.676581,0.566769 -1.57633,0.851335 -2.69806,0.851335 -0.348327,0.128704 -0.655327,0.279842 -0.918638,0.453415 -0.264492,0.174754 -0.396738,0.332977 -0.396738,0.474669 0,0.180658 0.132246,0.292831 0.396738,0.338881 0.263312,0.0448692 0.944615,0.0673038 2.04037,0.0673038 0.877312,0 1.63773,0.232612 2.28243,0.696654 0.6447,0.464042 0.96705,1.1607 0.96705,2.08878 0,1.019 -0.393196,1.80894 -1.17959,2.3698 -0.786392,0.560865 -1.84436,0.841888 -3.17273,0.841888 -1.32837,0 -2.3887,-0.223165 -3.18217,-0.668315 -0.792296,-0.443969 -1.19022,-1.11228 -1.19022,-2.0014 0,-0.193646 0.0236154,-0.380208 0.0720269,-0.560865 0.0448692,-0.180658 0.0991846,-0.342423 0.160585,-0.484115l2.01203 0c-0.0484115,0.103908 -0.0932808,0.212538 -0.132246,0.329435 -0.0425077,0.115715 -0.0614,0.238515 -0.0614,0.367219 0,0.451054 0.187742,0.799381 0.560865,1.04498 0.374304,0.244419 0.903288,0.367219 1.58695,0.367219 0.734438,0 1.30475,-0.13815 1.71212,-0.415631 0.405004,-0.277481 0.609277,-0.648242 0.609277,-1.11228 0,-0.503008 -0.216081,-0.854877 -0.648242,-1.05443 -0.432162,-0.19955 -1.11937,-0.299915 -2.06044,-0.299915 -1.26342,0 -2.11476,-0.115715 -2.554,-0.348327 -0.438065,-0.232612 -0.656508,-0.612819 -0.656508,-1.1418 0,-0.451054 0.151138,-0.795838 0.453415,-1.03435 0.303458,-0.238515 0.771042,-0.454596 1.40275,-0.648242 -1.48305,-0.425077 -2.22457,-1.34726 -2.22457,-2.76654 0,-0.993027 0.355412,-1.79241 1.06387,-2.39814 0.709642,-0.605735 1.6578,-0.909192 2.84329,-0.909192 0.504188,0 1.07096,0.0838346 1.70267,0.251504 0.631712,0.167669 1.05797,0.251504 1.27759,0.251504 0.631712,0 1.22446,-0.225527 1.77942,-0.676581l0.985942 1.33427c-0.503008,0.425077 -1.06978,0.638796 -1.70149,0.638796zm-5.74562 1.50784c0,1.09693 0.560865,1.64481 1.6826,1.64481 1.12173,0 1.68378,-0.554962 1.68378,-1.6637 0,-1.12173 -0.562046,-1.6826 -1.68378,-1.6826 -1.12173,0 -1.6826,0.566769 -1.6826,1.70149zm13.6875 -1.21855c-0.2456,-0.0897385 -0.44515,-0.134608 -0.601012,-0.134608 -0.438065,0 -0.827719,0.13815 -1.17014,0.415631 -0.341242,0.277481 -0.564408,0.622265 -0.667135,1.03435l0 6.61585 -2.12775 0 0 -6.90514c0,-0.580938 -0.0318808,-1.08749 -0.0968231,-1.51965 -0.0637615,-0.430981 -0.148777,-0.801742 -0.251504,-1.11228l1.95417 -0.5219c0.244419,0.471127 0.367219,0.993027 0.367219,1.56688 0.761596,-1.04498 1.59286,-1.56688 2.49615,-1.56688 0.283385,0 0.534888,0.0519538 0.753331,0.154681l-0.656508 1.97307zm10.5336 3.0759c0,1.57397 -0.387292,2.8185 -1.1607,3.73359 -0.774585,0.916277 -1.83137,1.37323 -3.17273,1.37323 -1.32837,0 -2.37925,-0.456958 -3.15383,-1.37323 -0.773404,-0.915096 -1.15952,-2.16671 -1.15952,-3.75248 0,-1.57397 0.386112,-2.8244 1.15952,-3.75367 0.774585,-0.928085 1.81248,-1.39213 3.11487,-1.39213 1.38032,0 2.45364,0.467585 3.22114,1.40275 0.7675,0.935169 1.15125,2.18915 1.15125,3.76193zm-6.2876 -0.154681c0,1.38032 0.161765,2.33792 0.484115,2.87281 0.32235,0.534888 0.825358,0.802923 1.50902,0.802923 0.6447,0 1.13118,-0.277481 1.45943,-0.832442 0.329435,-0.553781 0.493562,-1.43818 0.493562,-2.64965 0,-1.30239 -0.170031,-2.22811 -0.512454,-2.77599 -0.341242,-0.547877 -0.841888,-0.821815 -1.4984,-0.821815 -0.683665,0 -1.17723,0.266854 -1.48068,0.801742 -0.302277,0.536069 -0.454596,1.40275 -0.454596,2.60242zm13.4549 5.20365c-0.864323,0 -1.63773,-0.264492 -2.32139,-0.793477l0.0389654 0.96705 0 3.26955 -2.051 0.5219 0 -11.4452c0,-0.618723 -0.00944615,-1.06978 -0.0283385,-1.34726 -0.0200731,-0.277481 -0.0743885,-0.6447 -0.165308,-1.09693l1.95417 -0.308181c0.0519538,0.166488 0.0897385,0.324712 0.116896,0.473488 0.0247962,0.148777 0.0377846,0.376665 0.0377846,0.686027 0.32235,-0.386112 0.702558,-0.676581 1.1418,-0.870227 0.438065,-0.193646 0.928085,-0.289288 1.47006,-0.289288 1.06978,0 1.95299,0.408546 2.65083,1.23036 0.695473,0.822996 1.0438,2.051 1.0438,3.68282 0,1.65662 -0.338881,2.95665 -1.01546,3.90126 -0.677762,0.944615 -1.63418,1.4181 -2.87281,1.4181zm-2.28243 -7.4601l0 4.90019c0.257408,0.26095 0.547877,0.471127 0.870227,0.635254 0.32235,0.160585 0.638796,0.242058 0.948158,0.242058 0.709642,0 1.23154,-0.273938 1.56688,-0.825358 0.335338,-0.551419 0.503008,-1.4122 0.503008,-2.57998 0,-1.14062 -0.135788,-1.99196 -0.406185,-2.54928 -0.271577,-0.558504 -0.741523,-0.835985 -1.4122,-0.835985 -0.786392,0 -1.47714,0.338881 -2.06989,1.0131zm10.6116 2.9531l0 0.154681c0,0.799381 0.183019,1.46297 0.551419,1.99196 0.367219,0.528985 0.989485,0.793477 1.8668,0.793477 0.876131,0 1.6885,-0.32235 2.43711,-0.96705l0.831262 1.2953c-1.019,0.864323 -2.19269,1.29648 -3.52105,1.29648 -1.37914,0 -2.47607,-0.4605 -3.28844,-1.38268 -0.812369,-0.922181 -1.21855,-2.17025 -1.21855,-3.74304 0,-0.851335 0.0968231,-1.58341 0.290469,-2.19623 0.193646,-0.611638 0.586842,-1.25752 1.17959,-1.9341 0.593927,-0.677762 1.50902,-1.01546 2.74765,-1.01546 0.515996,0 0.989485,0.0743885 1.42165,0.221985 0.432162,0.148777 0.860781,0.413269 1.28586,0.793477 0.426258,0.380208 0.741523,0.90565 0.948158,1.57633 0.206635,0.670677 0.309362,1.56098 0.309362,2.66972l0 0.44515 -5.84127 0zm1.85617 -4.10081c-0.592746,0 -1.05088,0.218442 -1.37323,0.657688 -0.32235,0.438065 -0.482935,1.06387 -0.482935,1.87624l3.6167 0c0,-0.774585 -0.160585,-1.38977 -0.482935,-1.8479 -0.32235,-0.458138 -0.748608,-0.686027 -1.27759,-0.686027zm10.3211 8.66567c-1.32837,0 -2.35327,-0.44515 -3.0759,-1.33427 -0.72145,-0.8903 -1.08277,-2.12184 -1.08277,-3.69463 0,-1.67669 0.422715,-2.97318 1.26697,-3.88827 0.845431,-0.916277 1.86089,-1.37323 3.04638,-1.37323 0.580938,0 1.06742,0.0732077 1.46061,0.221985 0.394377,0.148777 0.810008,0.428619 1.24807,0.841888l-1.06387 1.41102c-0.554962,-0.501827 -1.10284,-0.753331 -1.64481,-0.753331 -0.708462,0 -1.21147,0.302277 -1.50784,0.908012 -0.297554,0.606915 -0.44515,1.54208 -0.44515,2.80551 0,1.30239 0.193646,2.16671 0.579758,2.59179 0.387292,0.426258 0.84425,0.638796 1.37323,0.638796 0.670677,0 1.32837,-0.32235 1.97307,-0.96705l1.00602 1.2953c-0.464042,0.465223 -0.933988,0.797019 -1.41102,0.996569 -0.478212,0.200731 -1.05207,0.299915 -1.72274,0.299915zm11.947 0.0578577c-0.219623,-0.167669 -0.394377,-0.338881 -0.523081,-0.512454 -0.128704,-0.173573 -0.238515,-0.409727 -0.328254,-0.7061 -0.709642,0.812369 -1.63773,1.21855 -2.78662,1.21855 -0.553781,0 -1.03081,-0.0802923 -1.43109,-0.242058 -0.3991,-0.160585 -0.712004,-0.376665 -0.937531,-0.650604 -0.225527,-0.270396 -0.38375,-0.592746 -0.474669,-0.96705 -0.0897385,-0.374304 -0.134608,-0.854877 -0.134608,-1.43463l0 -6.64891 2.08878 -0.386112 0 6.57098c0,0.712004 0.0909192,1.24099 0.270396,1.59168 0.180658,0.348327 0.56795,0.523081 1.1607,0.523081 0.361315,0 0.728535,-0.1228 1.10284,-0.367219 0.374304,-0.2456 0.6447,-0.5526 0.812369,-0.912735l0 -7.01967 2.051 -0.386112 0 7.38571c0,0.619904 0.0637615,1.06151 0.193646,1.32837 0.128704,0.264492 0.263312,0.474669 0.406185,0.62935l-1.47006 0.985942zm11.0367 0.0968231c-0.657688,-0.257408 -1.10284,-0.695473 -1.33545,-1.31538 -0.386112,0.426258 -0.795838,0.732077 -1.228,0.918638 -0.432162,0.187742 -0.918638,0.281023 -1.46061,0.281023 -1.06978,0 -1.87978,-0.268035 -2.42766,-0.802923 -0.547877,-0.534888 -0.821815,-1.24807 -0.821815,-2.13719 0,-1.12173 0.408546,-1.9707 1.228,-2.54456 0.819454,-0.573854 2.02148,-0.860781 3.60843,-0.860781l0.657688 0 0 -0.5219c0,-0.618723 -0.0873769,-1.06033 -0.262131,-1.32482 -0.173573,-0.264492 -0.538431,-0.396738 -1.09221,-0.396738 -0.593927,0 -1.13472,0.1228 -1.62474,0.367219 -0.490019,0.2456 -0.922181,0.497104 -1.29648,0.754512l-0.948158 -1.52792c0.722631,-0.451054 1.41574,-0.786392 2.07933,-1.00602 0.664773,-0.219623 1.35788,-0.328254 2.07933,-0.328254 1.54799,0 2.44419,0.302277 2.68979,0.909192 0.244419,0.605735 0.380208,1.03435 0.406185,1.28586 0.0247962,0.251504 0.0377846,0.551419 0.0377846,0.899746l0 0.928085 0 2.80551c0,0.696654 0.0484115,1.18313 0.145235,1.46061 0.0968231,0.2763 0.331796,0.544335 0.7061,0.801742l-1.14062 1.35434zm-2.20568 -5.0289c-1.03199,0 -1.75108,0.147596 -2.15727,0.443969 -0.406185,0.297554 -0.609277,0.7675 -0.609277,1.41338 0,0.477031 0.119258,0.846612 0.361315,1.11228 0.242058,0.263312 0.580938,0.395558 1.00956,0.395558 0.341242,0 0.667135,-0.0897385 0.980038,-0.270396 0.312904,-0.180658 0.579758,-0.432162 0.802923,-0.754512l0 -2.32139 -0.387292 -0.0188923zm10.5147 -3.30852c-0.2456,-0.0897385 -0.44515,-0.134608 -0.599831,-0.134608 -0.438065,0 -0.8289,0.13815 -1.17014,0.415631 -0.342423,0.277481 -0.564408,0.622265 -0.667135,1.03435l0 6.61585 -2.12893 0 0 -6.90514c0,-0.580938 -0.0318808,-1.08749 -0.0956423,-1.51965 -0.0649423,-0.430981 -0.148777,-0.801742 -0.251504,-1.11228l1.95299 -0.5219c0.2456,0.471127 0.3684,0.993027 0.3684,1.56688 0.760415,-1.04498 1.59168,-1.56688 2.49497,-1.56688 0.283385,0 0.534888,0.0519538 0.754512,0.154681l-0.657688 1.97307zm2.25409 -4.71953c0,-0.387292 0.135788,-0.722631 0.406185,-1.00602 0.271577,-0.283385 0.606915,-0.426258 1.00602,-0.426258 0.387292,0 0.715546,0.135788 0.987123,0.407365 0.270396,0.270396 0.406185,0.611638 0.406185,1.02491 0,0.387292 -0.13815,0.719088 -0.415631,0.996569 -0.277481,0.2763 -0.616362,0.415631 -1.01664,0.415631 -0.386112,0 -0.712004,-0.139331 -0.976496,-0.415631 -0.264492,-0.277481 -0.396738,-0.609277 -0.396738,-0.996569zm0.309362 12.6508l0 -9.6339 2.14782 -0.386112 0 10.02 -2.14782 0zm12.1985 0.406185c-0.658869,-0.257408 -1.10284,-0.695473 -1.33545,-1.31538 -0.387292,0.426258 -0.795838,0.732077 -1.228,0.918638 -0.432162,0.187742 -0.918638,0.281023 -1.46061,0.281023 -1.07096,0 -1.87978,-0.268035 -2.42766,-0.802923 -0.547877,-0.534888 -0.822996,-1.24807 -0.822996,-2.13719 0,-1.12173 0.409727,-1.9707 1.22918,-2.54456 0.818273,-0.573854 2.02148,-0.860781 3.60725,-0.860781l0.657688 0 0 -0.5219c0,-0.618723 -0.0873769,-1.06033 -0.26095,-1.32482 -0.173573,-0.264492 -0.538431,-0.396738 -1.09339,-0.396738 -0.592746,0 -1.13472,0.1228 -1.62474,0.367219 -0.490019,0.2456 -0.922181,0.497104 -1.2953,0.754512l-0.948158 -1.52792c0.722631,-0.451054 1.41456,-0.786392 2.07933,-1.00602 0.664773,-0.219623 1.35788,-0.328254 2.07933,-0.328254 1.54799,0 2.44419,0.302277 2.68979,0.909192 0.244419,0.605735 0.380208,1.03435 0.405004,1.28586 0.0259769,0.251504 0.0389654,0.551419 0.0389654,0.899746l0 0.928085 0 2.80551c0,0.696654 0.0484115,1.18313 0.145235,1.46061 0.0968231,0.2763 0.331796,0.544335 0.7061,0.801742l-1.14062 1.35434zm-2.20568 -5.0289c-1.03199,0 -1.75108,0.147596 -2.15727,0.443969 -0.406185,0.297554 -0.609277,0.7675 -0.609277,1.41338 0,0.477031 0.119258,0.846612 0.361315,1.11228 0.242058,0.263312 0.579758,0.395558 1.00838,0.395558 0.342423,0 0.668315,-0.0897385 0.981219,-0.270396 0.311723,-0.180658 0.579758,-0.432162 0.801742,-0.754512l0 -2.32139 -0.386112 -0.0188923zm17.2617 4.62625l-2.99443 -6.28996c-0.361315,-0.735619 -0.702558,-1.48068 -1.02491,-2.2352 -0.323531,-0.753331 -0.549058,-1.33073 -0.677762,-1.73101l-0.0578577 0.0590385c0.0389654,0.412088 0.0708462,1.00483 0.0968231,1.77942 0.0259769,0.773404 0.0389654,1.4181 0.0389654,1.9341l0.07675 6.48006 -2.1856 0 0 -13.3864 2.51504 0 3.24948 6.5391c0.271577,0.540792 0.541973,1.1607 0.812369,1.85617 0.270396,0.696654 0.458138,1.22564 0.560865,1.58695l0.0590385 -0.0578577c-0.0389654,-0.400281 -0.0814731,-1.00365 -0.126342,-1.80894 -0.0448692,-0.806465 -0.0673038,-1.4736 -0.0673038,-2.00258l0 -6.11284 2.06989 0 0 13.3864 -2.34501 0.00354231zm12.646 0.402642c-0.657688,-0.257408 -1.10284,-0.695473 -1.33427,-1.31538 -0.387292,0.426258 -0.797019,0.732077 -1.22918,0.918638 -0.432162,0.187742 -0.918638,0.281023 -1.45943,0.281023 -1.07096,0 -1.87978,-0.268035 -2.42884,-0.802923 -0.547877,-0.534888 -0.821815,-1.24807 -0.821815,-2.13719 0,-1.12173 0.409727,-1.9707 1.22918,-2.54456 0.818273,-0.573854 2.02148,-0.860781 3.60725,-0.860781l0.657688 0 0 -0.5219c0,-0.618723 -0.0873769,-1.06033 -0.26095,-1.32482 -0.174754,-0.264492 -0.538431,-0.396738 -1.09339,-0.396738 -0.592746,0 -1.13472,0.1228 -1.62474,0.367219 -0.490019,0.2456 -0.922181,0.497104 -1.29648,0.754512l-0.948158 -1.52792c0.722631,-0.451054 1.41574,-0.786392 2.08052,-1.00602 0.663592,-0.219623 1.3567,-0.328254 2.07933,-0.328254 1.54681,0 2.44419,0.302277 2.68861,0.909192 0.2456,0.605735 0.380208,1.03435 0.406185,1.28586 0.0259769,0.251504 0.0389654,0.551419 0.0389654,0.899746l0 0.928085 0 2.80551c0,0.696654 0.0484115,1.18313 0.145235,1.46061 0.0968231,0.2763 0.331796,0.544335 0.7061,0.801742l-1.1418 1.35434zm-2.20568 -5.0289c-1.03081,0 -1.7499,0.147596 -2.15608,0.443969 -0.406185,0.297554 -0.609277,0.7675 -0.609277,1.41338 0,0.477031 0.119258,0.846612 0.361315,1.11228 0.240877,0.263312 0.579758,0.395558 1.00838,0.395558 0.342423,0 0.667135,-0.0897385 0.980038,-0.270396 0.312904,-0.180658 0.580938,-0.432162 0.802923,-0.754512l0 -2.32139 -0.387292 -0.0188923zm9.48984 4.87422c-1.32837,0 -2.35327,-0.44515 -3.0759,-1.33427 -0.72145,-0.8903 -1.08277,-2.12184 -1.08277,-3.69463 0,-1.67669 0.421535,-2.97318 1.26697,-3.88827 0.84425,-0.916277 1.85971,-1.37323 3.04638,-1.37323 0.580938,0 1.06742,0.0732077 1.46061,0.221985 0.393196,0.148777 0.808827,0.428619 1.24807,0.841888l-1.06387 1.41102c-0.554962,-0.501827 -1.10284,-0.753331 -1.64481,-0.753331 -0.709642,0 -1.21265,0.302277 -1.50902,0.908012 -0.296373,0.606915 -0.44515,1.54208 -0.44515,2.80551 0,1.30239 0.193646,2.16671 0.580938,2.59179 0.386112,0.426258 0.84425,0.638796 1.37323,0.638796 0.670677,0 1.32837,-0.32235 1.97307,-0.96705l1.00602 1.2953c-0.464042,0.465223 -0.935169,0.797019 -1.4122,0.996569 -0.477031,0.200731 -1.05088,0.299915 -1.72156,0.299915zm5.13753 -12.9023c0,-0.387292 0.134608,-0.722631 0.405004,-1.00602 0.271577,-0.283385 0.606915,-0.426258 1.00602,-0.426258 0.387292,0 0.716727,0.135788 0.987123,0.407365 0.270396,0.270396 0.406185,0.611638 0.406185,1.02491 0,0.387292 -0.13815,0.719088 -0.415631,0.996569 -0.277481,0.2763 -0.616362,0.415631 -1.01664,0.415631 -0.386112,0 -0.712004,-0.139331 -0.976496,-0.415631 -0.264492,-0.277481 -0.395558,-0.609277 -0.395558,-0.996569zm0.308181 12.6508l0 -9.6339 2.14782 -0.386112 0 10.02 -2.14782 0zm13.5328 -4.85532c0,1.57397 -0.387292,2.8185 -1.1607,3.73359 -0.773404,0.916277 -1.83137,1.37323 -3.17273,1.37323 -1.32837,0 -2.37925,-0.456958 -3.15265,-1.37323 -0.773404,-0.915096 -1.1607,-2.16671 -1.1607,-3.75248 0,-1.57397 0.387292,-2.8244 1.1607,-3.75367 0.773404,-0.928085 1.8113,-1.39213 3.11369,-1.39213 1.38032,0 2.45364,0.467585 3.22114,1.40275 0.7675,0.935169 1.15125,2.18915 1.15125,3.76193zm-6.28642 -0.154681c0,1.38032 0.160585,2.33792 0.482935,2.87281 0.32235,0.534888 0.825358,0.802923 1.50902,0.802923 0.6447,0 1.13118,-0.277481 1.46061,-0.832442 0.328254,-0.553781 0.493562,-1.43818 0.493562,-2.64965 0,-1.30239 -0.171212,-2.22811 -0.512454,-2.77599 -0.342423,-0.547877 -0.841888,-0.821815 -1.49958,-0.821815 -0.683665,0 -1.17723,0.266854 -1.4795,0.801742 -0.303458,0.536069 -0.454596,1.40275 -0.454596,2.60242zm14.4798 5.01l0 -6.53202c0,-0.66005 -0.0814731,-1.10874 -0.242058,-1.3508 -0.161765,-0.238515 -0.454596,-0.357773 -0.879673,-0.357773 -0.310542,0 -0.664773,0.102727 -1.06387,0.309362 -0.400281,0.210177 -0.761596,0.474669 -1.08395,0.797019l0 7.13421 -2.08878 0 0 -7.22513c0,-0.918638 -0.1228,-1.69558 -0.3684,-2.33084l1.93528 -0.503008c0.231431,0.451054 0.348327,0.916277 0.348327,1.39331 0.540792,-0.464042 1.05088,-0.812369 1.52792,-1.04498 0.477031,-0.232612 0.96705,-0.348327 1.47006,-0.348327 0.773404,0 1.39213,0.232612 1.85735,0.700196 0.464042,0.464042 0.695473,1.13826 0.695473,2.01793l0 7.34084 -2.10767 0zm12.1005 0.406185c-0.657688,-0.257408 -1.10284,-0.695473 -1.33545,-1.31538 -0.386112,0.426258 -0.795838,0.732077 -1.228,0.918638 -0.432162,0.187742 -0.918638,0.281023 -1.46061,0.281023 -1.06978,0 -1.87978,-0.268035 -2.42766,-0.802923 -0.547877,-0.534888 -0.821815,-1.24807 -0.821815,-2.13719 0,-1.12173 0.409727,-1.9707 1.228,-2.54456 0.819454,-0.573854 2.02148,-0.860781 3.60843,-0.860781l0.657688 0 0 -0.5219c0,-0.618723 -0.0873769,-1.06033 -0.262131,-1.32482 -0.173573,-0.264492 -0.538431,-0.396738 -1.09221,-0.396738 -0.592746,0 -1.13472,0.1228 -1.62474,0.367219 -0.490019,0.2456 -0.922181,0.497104 -1.29648,0.754512l-0.948158 -1.52792c0.722631,-0.451054 1.41574,-0.786392 2.08052,-1.00602 0.663592,-0.219623 1.3567,-0.328254 2.07933,-0.328254 1.54681,0 2.44301,0.302277 2.68861,0.909192 0.244419,0.605735 0.380208,1.03435 0.406185,1.28586 0.0259769,0.251504 0.0389654,0.551419 0.0389654,0.899746l0 0.928085 0 2.80551c0,0.696654 0.0484115,1.18313 0.145235,1.46061 0.0968231,0.2763 0.331796,0.544335 0.704919,0.801742l-1.14062 1.35434zm-2.20568 -5.0289c-1.03081,0 -1.7499,0.147596 -2.15727,0.443969 -0.405004,0.297554 -0.608096,0.7675 -0.608096,1.41338 0,0.477031 0.118077,0.846612 0.360135,1.11228 0.242058,0.263312 0.580938,0.395558 1.00956,0.395558 0.341242,0 0.667135,-0.0897385 0.980038,-0.270396 0.312904,-0.180658 0.579758,-0.432162 0.802923,-0.754512l0 -2.32139 -0.387292 -0.0188923zm8.03868 4.83525c-0.928085,0 -1.51847,-0.2763 -1.76997,-0.831262 -0.251504,-0.554962 -0.377846,-1.19966 -0.377846,-1.9341l0 -8.33741c0,-1.13472 -0.0637615,-2.08996 -0.192465,-2.86337l2.1856 -0.484115c0.0649423,0.2456 0.109812,0.596288 0.135788,1.05443 0.0259769,0.458138 0.0377846,1.00365 0.0377846,1.63537l0 8.29845c0,0.657688 0.0129885,1.0804 0.0389654,1.26697 0.0259769,0.186562 0.0838346,0.351869 0.174754,0.493562 0.0897385,0.141692 0.244419,0.212538 0.464042,0.212538 0.07675,0 0.154681,-0.0188923 0.231431,-0.0578577l0.348327 1.31538c-0.386112,0.154681 -0.812369,0.231431 -1.27641,0.231431z"/>
    <path id="_467776200" class="fil8" d="M414.566 147.251l-1.15833 -2.06989c-0.464042,-0.825358 -0.876131,-1.4984 -1.23745,-2.02148 -0.361315,-0.5219 -0.657688,-0.899746 -0.8903,-1.13118 -0.231431,-0.232612 -0.412088,-0.38375 -0.541973,-0.454596 -0.128704,-0.0708462 -0.289288,-0.106269 -0.482935,-0.106269l0 5.78341 -2.1856 0 0 -13.3864 4.08192 0c1.43109,0 2.51386,0.361315 3.24948,1.08395 0.734438,0.72145 1.10284,1.63773 1.10284,2.74647 0,1.00602 -0.303458,1.87034 -0.909192,2.59179 -0.606915,0.722631 -1.4122,1.08395 -2.41822,1.08395 0.218442,0.115715 0.519538,0.432162 0.899746,0.946977 0.380208,0.515996 0.769862,1.08985 1.17014,1.72156l1.97307 3.21169 -2.65319 0zm-4.31099 -11.5869l0 4.23542 1.1418 0c1.08277,0 1.81838,-0.192465 2.2045,-0.579758 0.387292,-0.387292 0.580938,-0.922181 0.580938,-1.60585 0,-0.695473 -0.210177,-1.21147 -0.62935,-1.54681 -0.419173,-0.335338 -1.11228,-0.503008 -2.07933,-0.503008l-1.21855 0zm11.5739 7.27354l0 0.154681c0,0.799381 0.1842,1.46297 0.551419,1.99196 0.367219,0.528985 0.989485,0.793477 1.8668,0.793477 0.877312,0 1.68968,-0.32235 2.43711,-0.96705l0.831262 1.2953c-1.01782,0.864323 -2.19151,1.29648 -3.51987,1.29648 -1.38032,0 -2.47607,-0.461681 -3.28844,-1.38268 -0.812369,-0.922181 -1.21855,-2.17025 -1.21855,-3.74304 0,-0.851335 0.0968231,-1.58341 0.289288,-2.19623 0.193646,-0.612819 0.586842,-1.25752 1.18077,-1.9341 0.592746,-0.677762 1.50902,-1.01546 2.74647,-1.01546 0.515996,0 0.990665,0.0743885 1.42165,0.221985 0.432162,0.148777 0.860781,0.413269 1.28704,0.793477 0.425077,0.380208 0.741523,0.90565 0.948158,1.57633 0.205454,0.670677 0.309362,1.56098 0.309362,2.66972l0 0.44515 -5.84245 0zm1.85735 -4.10199c-0.592746,0 -1.05088,0.219623 -1.37323,0.658869 -0.32235,0.438065 -0.484115,1.06387 -0.484115,1.87624l3.61788 0c0,-0.774585 -0.161765,-1.38977 -0.484115,-1.8479 -0.32235,-0.458138 -0.747427,-0.687208 -1.27641,-0.687208zm13.1018 8.41534c-0.0649423,-0.141692 -0.1228,-0.393196 -0.173573,-0.754512 -0.6447,0.6447 -1.44526,0.96705 -2.39932,0.96705 -1.25043,0 -2.23047,-0.447512 -2.94012,-1.34372 -0.709642,-0.896204 -1.06387,-2.1183 -1.06387,-3.66629 0,-1.52201 0.380208,-2.763 1.14062,-3.72415 0.761596,-0.959965 1.73573,-1.44054 2.92122,-1.44054 0.826538,0 1.52792,0.296373 2.10885,0.8903 0,-0.103908 -0.00944615,-0.351869 -0.0283385,-0.745065 -0.0200731,-0.393196 -0.0295192,-0.680123 -0.0295192,-0.860781l0 -3.57891 2.10885 0.328254 0 10.5242c0,0.941073 0.0247962,1.67669 0.07675,2.2045 0.0519538,0.528985 0.128704,0.929265 0.232612,1.19966l-1.95417 0zm-0.464042 -7.46718c-0.490019,-0.528985 -1.08277,-0.792296 -1.77942,-0.792296 -1.31538,0 -1.97307,1.14653 -1.97307,3.44312 0,1.14771 0.144054,1.97661 0.434523,2.48552 0.290469,0.508912 0.821815,0.763958 1.5964,0.763958 0.386112,0 0.728535,-0.0873769 1.02491,-0.26095 0.296373,-0.174754 0.528985,-0.396738 0.696654,-0.667135l0 -4.97222zm16.3135 7.46718c-0.0649423,-0.141692 -0.1228,-0.393196 -0.174754,-0.754512 -0.6447,0.6447 -1.44408,0.96705 -2.39814,0.96705 -1.25162,0 -2.23165,-0.447512 -2.9413,-1.34372 -0.708462,-0.896204 -1.06387,-2.1183 -1.06387,-3.66629 0,-1.52201 0.380208,-2.763 1.1418,-3.72415 0.761596,-0.959965 1.73455,-1.44054 2.92122,-1.44054 0.825358,0 1.52792,0.296373 2.10767,0.8903 0,-0.103908 -0.00944615,-0.351869 -0.0283385,-0.745065 -0.0200731,-0.393196 -0.0295192,-0.680123 -0.0295192,-0.860781l0 -3.57891 2.10885 0.328254 0 10.5242c0,0.941073 0.0259769,1.67669 0.0779308,2.2045 0.0507731,0.528985 0.128704,0.929265 0.231431,1.19966l-1.95299 0zm-0.465223 -7.46718c-0.490019,-0.528985 -1.08277,-0.792296 -1.77942,-0.792296 -1.31538,0 -1.97307,1.14653 -1.97307,3.44312 0,1.14771 0.145235,1.97661 0.435704,2.48552 0.289288,0.508912 0.821815,0.763958 1.59522,0.763958 0.387292,0 0.728535,-0.0873769 1.02609,-0.26095 0.296373,-0.174754 0.527804,-0.396738 0.695473,-0.667135l0 -4.97222zm7.72459 3.15383l0 0.154681c0,0.799381 0.1842,1.46297 0.551419,1.99196 0.367219,0.528985 0.989485,0.793477 1.8668,0.793477 0.877312,0 1.68968,-0.32235 2.43711,-0.96705l0.832442 1.2953c-1.019,0.864323 -2.19269,1.29648 -3.52105,1.29648 -1.38032,0 -2.47607,-0.461681 -3.28844,-1.38268 -0.812369,-0.922181 -1.21855,-2.17025 -1.21855,-3.74304 0,-0.851335 0.0968231,-1.58341 0.289288,-2.19623 0.193646,-0.612819 0.586842,-1.25752 1.18077,-1.9341 0.592746,-0.677762 1.50902,-1.01546 2.74647,-1.01546 0.515996,0 0.990665,0.0743885 1.42165,0.221985 0.432162,0.148777 0.861962,0.413269 1.28704,0.793477 0.425077,0.380208 0.741523,0.90565 0.948158,1.57633 0.205454,0.670677 0.309362,1.56098 0.309362,2.66972l0 0.44515 -5.84245 0zm1.85735 -4.10199c-0.592746,0 -1.05088,0.219623 -1.37323,0.658869 -0.32235,0.438065 -0.484115,1.06387 -0.484115,1.87624l3.61788 0c0,-0.774585 -0.161765,-1.38977 -0.484115,-1.8479 -0.32235,-0.458138 -0.747427,-0.687208 -1.27641,-0.687208zm11.7675 8.41534l0 -13.3864 2.28243 0 0 13.3864 -2.28243 0zm11.6896 0l0 -6.53202c0,-0.66005 -0.0802923,-1.10874 -0.242058,-1.3508 -0.160585,-0.238515 -0.454596,-0.357773 -0.879673,-0.357773 -0.309362,0 -0.663592,0.102727 -1.06387,0.309362 -0.400281,0.210177 -0.760415,0.473488 -1.08277,0.797019l0 7.13421 -2.08996 0 0 -7.22513c0,-0.918638 -0.1228,-1.69558 -0.367219,-2.33084l1.9341 -0.503008c0.232612,0.451054 0.348327,0.915096 0.348327,1.39213 0.541973,-0.464042 1.05088,-0.812369 1.52792,-1.0438 0.477031,-0.232612 0.96705,-0.348327 1.47006,-0.348327 0.774585,0 1.39331,0.232612 1.85735,0.700196 0.464042,0.464042 0.696654,1.13708 0.696654,2.01793l0 7.34084 -2.10885 0zm10.4911 -12.3024c-0.490019,-0.232612 -0.883215,-0.348327 -1.18077,-0.348327 -0.799381,0 -1.19848,0.456958 -1.19848,1.37323l0 1.48895 2.55282 0 -0.544335 1.47006 -2.00849 0 0 8.31852 -2.10885 0 0 -8.31852 -0.8903 0 0 -1.47006 0.948158 0c-0.0129885,-0.154681 -0.0259769,-0.38375 -0.0389654,-0.686027 -0.0129885,-0.303458 -0.0188923,-0.558504 -0.0188923,-0.763958 0,-0.980038 0.270396,-1.72274 0.812369,-2.22457 0.541973,-0.504188 1.26342,-0.754512 2.16671,-0.754512 0.812369,0 1.54681,0.186562 2.20568,0.560865l-0.696654 1.35434zm10.0838 7.44711c0,1.57397 -0.386112,2.81732 -1.1607,3.73359 -0.773404,0.915096 -1.83019,1.37323 -3.17155,1.37323 -1.32837,0 -2.37925,-0.458138 -3.15383,-1.37323 -0.773404,-0.916277 -1.1607,-2.16671 -1.1607,-3.75248 0,-1.57397 0.387292,-2.8244 1.1607,-3.75367 0.774585,-0.928085 1.81248,-1.39213 3.11487,-1.39213 1.38032,0 2.45364,0.467585 3.22114,1.40157 0.7675,0.935169 1.15007,2.18915 1.15007,3.76311zm-6.28642 -0.154681c0,1.37914 0.161765,2.33674 0.482935,2.87281 0.323531,0.534888 0.825358,0.802923 1.50902,0.802923 0.645881,0 1.13236,-0.277481 1.46061,-0.832442 0.329435,-0.554962 0.493562,-1.43818 0.493562,-2.64965 0,-1.30239 -0.171212,-2.22811 -0.512454,-2.77599 -0.342423,-0.547877 -0.841888,-0.822996 -1.49958,-0.822996 -0.683665,0 -1.17605,0.268035 -1.4795,0.802923 -0.303458,0.536069 -0.454596,1.40275 -0.454596,2.60242zm14.05 -2.92122c-0.244419,-0.0897385 -0.44515,-0.135788 -0.599831,-0.135788 -0.438065,0 -0.8289,0.139331 -1.17014,0.416812 -0.342423,0.277481 -0.564408,0.622265 -0.667135,1.03435l0 6.61585 -2.12893 0 0 -6.90632c0,-0.579758 -0.0318808,-1.08631 -0.0956423,-1.51847 -0.0649423,-0.432162 -0.148777,-0.802923 -0.251504,-1.11228l1.95299 -0.5219c0.2456,0.471127 0.3684,0.993027 0.3684,1.56688 0.760415,-1.04498 1.59168,-1.56688 2.49497,-1.56688 0.283385,0 0.534888,0.0519538 0.754512,0.154681l-0.657688 1.97307zm13.2376 7.93123l0 -6.78706c0,-0.566769 -0.0708462,-0.957604 -0.212538,-1.16306 -0.141692,-0.206635 -0.406185,-0.309362 -0.793477,-0.309362 -0.335338,0 -0.663592,0.0932808 -0.985942,0.279842 -0.323531,0.186562 -0.683665,0.471127 -1.08395,0.845431l0 7.13421 -2.03092 0 0 -6.74455c0,-0.5833 -0.0743885,-0.980038 -0.221985,-1.19612 -0.148777,-0.212538 -0.4298,-0.318808 -0.841888,-0.318808 -0.6447,0 -1.31538,0.32235 -2.01203,0.970592l0 7.28889 -2.06989 0 0 -7.03502c0,-0.635254 -0.0259769,-1.13472 -0.0779308,-1.50194 -0.0507731,-0.370762 -0.141692,-0.696654 -0.270396,-0.980038l1.93528 -0.5219c0.115715,0.179477 0.203092,0.367219 0.26095,0.559685 0.0578577,0.193646 0.0861962,0.426258 0.0861962,0.696654 0.800562,-0.838346 1.6637,-1.25634 2.59297,-1.25634 0.490019,0 0.915096,0.0991846 1.27641,0.302277 0.361315,0.203092 0.715546,0.586842 1.06387,1.14771 0.941073,-0.96705 1.91521,-1.44998 2.92122,-1.44998 0.838346,0 1.4736,0.227888 1.90458,0.686027 0.432162,0.4605 0.648242,1.18667 0.648242,2.18206l0 7.17081 -2.08878 0zm12.5032 0.406185c-0.658869,-0.257408 -1.10284,-0.696654 -1.33545,-1.31538 -0.387292,0.426258 -0.795838,0.732077 -1.228,0.918638 -0.432162,0.187742 -0.918638,0.281023 -1.46061,0.281023 -1.07096,0 -1.87978,-0.268035 -2.42766,-0.802923 -0.547877,-0.534888 -0.822996,-1.24807 -0.822996,-2.13719 0,-1.12291 0.409727,-1.9707 1.22918,-2.54456 0.818273,-0.573854 2.02148,-0.860781 3.60725,-0.860781l0.657688 0 0 -0.5219c0,-0.618723 -0.0873769,-1.06033 -0.26095,-1.32482 -0.173573,-0.264492 -0.538431,-0.396738 -1.09339,-0.396738 -0.592746,0 -1.13472,0.121619 -1.62474,0.367219 -0.490019,0.2456 -0.922181,0.497104 -1.29648,0.754512l-0.946977 -1.52792c0.722631,-0.451054 1.41456,-0.786392 2.07933,-1.00602 0.663592,-0.219623 1.35788,-0.328254 2.07933,-0.328254 1.54799,0 2.44419,0.302277 2.68861,0.908012 0.2456,0.606915 0.380208,1.03553 0.406185,1.28704 0.0259769,0.251504 0.0389654,0.551419 0.0389654,0.899746l0 0.928085 0 2.80433c0,0.696654 0.0484115,1.18431 0.145235,1.46061 0.0968231,0.277481 0.331796,0.545515 0.7061,0.802923l-1.14062 1.35434zm-2.20568 -5.0289c-1.03199,0 -1.75108,0.147596 -2.15727,0.443969 -0.406185,0.296373 -0.609277,0.7675 -0.609277,1.4122 0,0.477031 0.119258,0.847792 0.361315,1.11228 0.240877,0.264492 0.579758,0.396738 1.00838,0.396738 0.342423,0 0.668315,-0.0897385 0.980038,-0.270396 0.312904,-0.180658 0.580938,-0.432162 0.802923,-0.754512l0 -2.32139 -0.386112 -0.0188923zm9.89012 4.87422c-1.32718,0 -2.35327,-0.44515 -3.07472,-1.33427 -0.722631,-0.8903 -1.08395,-2.12184 -1.08395,-3.69463 0,-1.67669 0.422715,-2.97318 1.26697,-3.88945 0.845431,-0.915096 1.86089,-1.37205 3.04757,-1.37205 0.579758,0 1.06742,0.0732077 1.46061,0.221985 0.393196,0.147596 0.808827,0.428619 1.24689,0.841888l-1.06387 1.41102c-0.554962,-0.503008 -1.10284,-0.754512 -1.64363,-0.754512 -0.709642,0 -1.21265,0.303458 -1.50902,0.909192 -0.297554,0.606915 -0.44515,1.54208 -0.44515,2.80551 0,1.30239 0.193646,2.16671 0.579758,2.59179 0.387292,0.426258 0.845431,0.638796 1.37442,0.638796 0.669496,0 1.32718,-0.32235 1.97307,-0.96705l1.00483 1.2953c-0.464042,0.465223 -0.933988,0.797019 -1.41102,0.996569 -0.478212,0.200731 -1.05207,0.299915 -1.72274,0.299915zm5.53899 -12.9023c0,-0.387292 0.135788,-0.722631 0.406185,-1.00602 0.270396,-0.283385 0.605735,-0.426258 1.00602,-0.426258 0.387292,0 0.715546,0.135788 0.987123,0.406185 0.270396,0.271577 0.406185,0.612819 0.406185,1.02609 0,0.386112 -0.139331,0.719088 -0.415631,0.995388 -0.277481,0.277481 -0.616362,0.416812 -1.01664,0.416812 -0.386112,0 -0.712004,-0.139331 -0.976496,-0.416812 -0.264492,-0.2763 -0.396738,-0.609277 -0.396738,-0.995388zm0.309362 12.6508l0 -9.6339 2.14782 -0.386112 0 10.02 -2.14782 0zm13.9343 -4.85532c0,1.57397 -0.387292,2.81732 -1.1607,3.73359 -0.773404,0.915096 -1.83137,1.37323 -3.17273,1.37323 -1.32837,0 -2.37925,-0.458138 -3.15265,-1.37323 -0.773404,-0.916277 -1.1607,-2.16671 -1.1607,-3.75248 0,-1.57397 0.387292,-2.8244 1.1607,-3.75367 0.773404,-0.928085 1.8113,-1.39213 3.11369,-1.39213 1.38032,0 2.45364,0.467585 3.22114,1.40157 0.7675,0.935169 1.15125,2.18915 1.15125,3.76311zm-6.28642 -0.154681c0,1.37914 0.160585,2.33674 0.482935,2.87281 0.32235,0.534888 0.825358,0.802923 1.50902,0.802923 0.6447,0 1.13118,-0.277481 1.46061,-0.832442 0.328254,-0.554962 0.493562,-1.43818 0.493562,-2.64965 0,-1.30239 -0.171212,-2.22811 -0.512454,-2.77599 -0.342423,-0.547877 -0.841888,-0.822996 -1.49958,-0.822996 -0.683665,0 -1.17723,0.268035 -1.4795,0.802923 -0.303458,0.536069 -0.454596,1.40275 -0.454596,2.60242zm4.70064 -7.79662l-4.25549 1.97425 -0.658869 -1.21855 3.94731 -2.554 0.96705 1.79831zm10.1806 12.8066l0 -6.53202c0,-0.66005 -0.0802923,-1.10874 -0.242058,-1.3508 -0.160585,-0.238515 -0.454596,-0.357773 -0.879673,-0.357773 -0.309362,0 -0.664773,0.102727 -1.06387,0.309362 -0.400281,0.210177 -0.761596,0.473488 -1.08395,0.797019l0 7.13421 -2.08878 0 0 -7.22513c0,-0.918638 -0.1228,-1.69558 -0.367219,-2.33084l1.9341 -0.503008c0.232612,0.451054 0.348327,0.915096 0.348327,1.39213 0.540792,-0.464042 1.05088,-0.812369 1.52792,-1.0438 0.477031,-0.232612 0.96705,-0.348327 1.47006,-0.348327 0.773404,0 1.39331,0.232612 1.85735,0.700196 0.464042,0.464042 0.696654,1.13708 0.696654,2.01793l0 7.34084 -2.10885 0z"/>
    <g>
     <path id="_467776104" class="fil8" d="M434.014 54.391c6.22265,0 11.2291,1.89395 15.017,5.68186 3.78791,3.78791 5.68186,8.79319 5.68186,15.017 0,5.34298 -1.53854,9.92673 -4.61681,13.7489 -3.07708,3.82097 -6.78116,5.73263 -11.1099,5.73263 1.21737,0.946977 2.3332,2.06398 3.34748,3.34748 1.01428,1.28586 2.84211,4.07602 5.47995,8.37165 2.63784,4.29564 4.83643,7.96547 6.5946,11.0083 1.75935,3.0452 3.24712,5.5815 4.46449,7.61124l-16.7421 0 -6.5946 -11.568c-3.7206,-6.69614 -6.29114,-11.1099 -7.7116,-13.24 -1.42047,-2.13247 -2.62131,-3.41715 -3.60135,-3.85639 -0.981219,-0.439246 -1.84318,-0.694292 -2.58707,-0.761596l0 29.426 -13.9012 0 0 -70.5191 26.2792 0zm-12.378 30.4391l4.76795 0c3.04402,0 5.32645,-0.16885 6.84964,-0.50655 1.52201,-0.338881 2.99207,-1.15007 4.41372,-2.43593 1.42047,-1.28468 2.13011,-3.44903 2.13011,-6.49423 0,-4.53061 -1.30239,-7.27118 -3.90598,-8.21815 -2.60478,-0.946977 -5.66533,-1.42047 -9.18284,-1.42047l-5.07258 0 0 19.0753z"/>
     <path id="_467776296" class="fil8" d="M568.187 54.3142l13.495 28.2086c1.75817,3.7206 3.28018,7.23693 4.56603,10.5525 1.28468,3.31324 2.3332,6.45999 3.14557,9.43553 -0.203092,-2.16435 -0.440427,-5.44453 -0.710823,-9.84171 -0.270396,-4.39718 -0.406185,-7.57582 -0.406185,-9.53825l-0.304638 -28.8167 13.495 0 0 70.5191 -14.8139 0 -12.0734 -26.99c-3.0452,-6.76463 -5.27686,-11.9045 -6.69732,-15.422 -1.42047,-3.51751 -2.36744,-6.08805 -2.84093,-7.7116 0.203092,2.16435 0.371942,5.37722 0.507731,9.63862 0.134608,4.26258 0.201912,7.7116 0.201912,10.3506l0.406185 30.1344 -13.6981 0 0 -70.5191 15.7278 0z"/>
     <path id="_467776176" class="fil8" d="M526.115 54.1607l22.2209 70.7222 -15.2189 0 -4.97222 -16.7421 -20.6989 0 -4.97104 16.7421 -14.8139 0 19.3186 -59.0574c2.54102,-7.90289 9.39302,-11.79 19.1355,-11.6648zm-1.41928 42.2101c-0.271577,-1.08277 -0.8289,-3.04402 -1.67433,-5.88495 -0.846612,-2.84211 -1.57278,-5.61456 -2.18206,-8.32088l-2.84093 -12.4796 -3.34866 13.5966c-0.608096,2.36744 -1.25162,4.73488 -1.92702,7.10233 -0.677762,2.36744 -1.28586,4.36294 -1.82665,5.9865l13.7997 0z"/>
     <polygon id="_467777184" class="fil8" points="481.244,54.3685 481.244,124.888 466.43,124.888 466.43,54.3685 "/>
    </g>
   </g>
  </g>
 </g>
</svg>
